<?xml version="1.0" encoding="utf-8" standalone="no"?>
<!DOCTYPE svg PUBLIC "-//W3C//DTD SVG 1.1//EN"
  "http://www.w3.org/Graphics/SVG/1.1/DTD/svg11.dtd">
<svg xmlns:xlink="http://www.w3.org/1999/xlink" width="460.8pt" height="345.6pt" viewBox="0 0 460.8 345.6" xmlns="http://www.w3.org/2000/svg" version="1.1">
 <metadata>
  <rdf:RDF xmlns:dc="http://purl.org/dc/elements/1.1/" xmlns:cc="http://creativecommons.org/ns#" xmlns:rdf="http://www.w3.org/1999/02/22-rdf-syntax-ns#">
   <cc:Work>
    <dc:type rdf:resource="http://purl.org/dc/dcmitype/StillImage"/>
    <dc:date>2025-02-13T12:35:28.657726</dc:date>
    <dc:format>image/svg+xml</dc:format>
    <dc:creator>
     <cc:Agent>
      <dc:title>Matplotlib v3.10.0, https://matplotlib.org/</dc:title>
     </cc:Agent>
    </dc:creator>
   </cc:Work>
  </rdf:RDF>
 </metadata>
 <defs>
  <style type="text/css">*{stroke-linejoin: round; stroke-linecap: butt}</style>
 </defs>
 <g id="figure_1">
  <g id="patch_1">
   <path d="M 0 345.6 
L 460.8 345.6 
L 460.8 0 
L 0 0 
z
" style="fill: #ffffff"/>
  </g>
  <g id="axes_1">
   <g id="patch_2">
    <path d="M 57.6 307.584 
L 414.72 307.584 
L 414.72 41.472 
L 57.6 41.472 
z
" style="fill: #ffffff"/>
   </g>
   <g id="patch_3">
    <path d="M 73.832727 307.584 
L 83.802924 307.584 
L 83.802924 212.762483 
L 73.832727 212.762483 
z
" clip-path="url(#p99ac8502a3)" style="fill: #1f77b4"/>
   </g>
   <g id="patch_4">
    <path d="M 86.295474 307.584 
L 96.265671 307.584 
L 96.265671 280.055172 
L 86.295474 280.055172 
z
" clip-path="url(#p99ac8502a3)" style="fill: #1f77b4"/>
   </g>
   <g id="patch_5">
    <path d="M 98.75822 307.584 
L 108.728417 307.584 
L 108.728417 263.013517 
L 98.75822 263.013517 
z
" clip-path="url(#p99ac8502a3)" style="fill: #1f77b4"/>
   </g>
   <g id="patch_6">
    <path d="M 111.220967 307.584 
L 121.191164 307.584 
L 121.191164 233.591172 
L 111.220967 233.591172 
z
" clip-path="url(#p99ac8502a3)" style="fill: #1f77b4"/>
   </g>
   <g id="patch_7">
    <path d="M 123.683713 307.584 
L 133.65391 307.584 
L 133.65391 54.144 
L 123.683713 54.144 
z
" clip-path="url(#p99ac8502a3)" style="fill: #1f77b4"/>
   </g>
   <g id="patch_8">
    <path d="M 136.14646 307.584 
L 146.116657 307.584 
L 146.116657 283.405241 
L 136.14646 283.405241 
z
" clip-path="url(#p99ac8502a3)" style="fill: #1f77b4"/>
   </g>
   <g id="patch_9">
    <path d="M 148.609206 307.584 
L 158.579403 307.584 
L 158.579403 263.741793 
L 148.609206 263.741793 
z
" clip-path="url(#p99ac8502a3)" style="fill: #1f77b4"/>
   </g>
   <g id="patch_10">
    <path d="M 161.071953 307.584 
L 171.04215 307.584 
L 171.04215 238.252138 
L 161.071953 238.252138 
z
" clip-path="url(#p99ac8502a3)" style="fill: #1f77b4"/>
   </g>
   <g id="patch_11">
    <path d="M 173.534699 307.584 
L 183.504896 307.584 
L 183.504896 197.614345 
L 173.534699 197.614345 
z
" clip-path="url(#p99ac8502a3)" style="fill: #1f77b4"/>
   </g>
   <g id="patch_12">
    <path d="M 185.997445 307.584 
L 195.967643 307.584 
L 195.967643 303.65131 
L 185.997445 303.65131 
z
" clip-path="url(#p99ac8502a3)" style="fill: #1f77b4"/>
   </g>
   <g id="patch_13">
    <path d="M 198.460192 307.584 
L 208.430389 307.584 
L 208.430389 289.959724 
L 198.460192 289.959724 
z
" clip-path="url(#p99ac8502a3)" style="fill: #1f77b4"/>
   </g>
   <g id="patch_14">
    <path d="M 210.922938 307.584 
L 220.893136 307.584 
L 220.893136 257.478621 
L 210.922938 257.478621 
z
" clip-path="url(#p99ac8502a3)" style="fill: #1f77b4"/>
   </g>
   <g id="patch_15">
    <path d="M 223.385685 307.584 
L 233.355882 307.584 
L 233.355882 270.733241 
L 223.385685 270.733241 
z
" clip-path="url(#p99ac8502a3)" style="fill: #1f77b4"/>
   </g>
   <g id="patch_16">
    <path d="M 235.848431 307.584 
L 245.818629 307.584 
L 245.818629 165.133241 
L 235.848431 165.133241 
z
" clip-path="url(#p99ac8502a3)" style="fill: #1f77b4"/>
   </g>
   <g id="patch_17">
    <path d="M 248.311178 307.584 
L 258.281375 307.584 
L 258.281375 271.024552 
L 248.311178 271.024552 
z
" clip-path="url(#p99ac8502a3)" style="fill: #1f77b4"/>
   </g>
   <g id="patch_18">
    <path d="M 260.773924 307.584 
L 270.744121 307.584 
L 270.744121 296.077241 
L 260.773924 296.077241 
z
" clip-path="url(#p99ac8502a3)" style="fill: #1f77b4"/>
   </g>
   <g id="patch_19">
    <path d="M 273.236671 307.584 
L 283.206868 307.584 
L 283.206868 307.29269 
L 273.236671 307.29269 
z
" clip-path="url(#p99ac8502a3)" style="fill: #1f77b4"/>
   </g>
   <g id="patch_20">
    <path d="M 285.699417 307.584 
L 295.669614 307.584 
L 295.669614 205.625379 
L 285.699417 205.625379 
z
" clip-path="url(#p99ac8502a3)" style="fill: #1f77b4"/>
   </g>
   <g id="patch_21">
    <path d="M 298.162164 307.584 
L 308.132361 307.584 
L 308.132361 201.69269 
L 298.162164 201.69269 
z
" clip-path="url(#p99ac8502a3)" style="fill: #1f77b4"/>
   </g>
   <g id="patch_22">
    <path d="M 310.62491 307.584 
L 320.595107 307.584 
L 320.595107 218.006069 
L 310.62491 218.006069 
z
" clip-path="url(#p99ac8502a3)" style="fill: #1f77b4"/>
   </g>
   <g id="patch_23">
    <path d="M 323.087657 307.584 
L 333.057854 307.584 
L 333.057854 244.224 
L 323.087657 244.224 
z
" clip-path="url(#p99ac8502a3)" style="fill: #1f77b4"/>
   </g>
   <g id="patch_24">
    <path d="M 335.550403 307.584 
L 345.5206 307.584 
L 345.5206 297.825103 
L 335.550403 297.825103 
z
" clip-path="url(#p99ac8502a3)" style="fill: #1f77b4"/>
   </g>
   <g id="patch_25">
    <path d="M 348.01315 307.584 
L 357.983347 307.584 
L 357.983347 280.055172 
L 348.01315 280.055172 
z
" clip-path="url(#p99ac8502a3)" style="fill: #1f77b4"/>
   </g>
   <g id="patch_26">
    <path d="M 360.475896 307.584 
L 370.446093 307.584 
L 370.446093 307.147034 
L 360.475896 307.147034 
z
" clip-path="url(#p99ac8502a3)" style="fill: #1f77b4"/>
   </g>
   <g id="patch_27">
    <path d="M 372.938642 307.584 
L 382.90884 307.584 
L 382.90884 307.001379 
L 372.938642 307.001379 
z
" clip-path="url(#p99ac8502a3)" style="fill: #1f77b4"/>
   </g>
   <g id="patch_28">
    <path d="M 385.401389 307.584 
L 395.371586 307.584 
L 395.371586 291.124966 
L 385.401389 291.124966 
z
" clip-path="url(#p99ac8502a3)" style="fill: #1f77b4"/>
   </g>
   <g id="patch_29">
    <path d="M 76.948414 307.584 
L 86.918611 307.584 
L 86.918611 215.778559 
L 76.948414 215.778559 
z
" clip-path="url(#p99ac8502a3)" style="fill: #ff7f0e"/>
   </g>
   <g id="patch_30">
    <path d="M 89.41116 307.584 
L 99.381358 307.584 
L 99.381358 272.870409 
L 89.41116 272.870409 
z
" clip-path="url(#p99ac8502a3)" style="fill: #ff7f0e"/>
   </g>
   <g id="patch_31">
    <path d="M 101.873907 307.584 
L 111.844104 307.584 
L 111.844104 252.566233 
L 101.873907 252.566233 
z
" clip-path="url(#p99ac8502a3)" style="fill: #ff7f0e"/>
   </g>
   <g id="patch_32">
    <path d="M 114.336653 307.584 
L 124.30685 307.584 
L 124.30685 238.156817 
L 114.336653 238.156817 
z
" clip-path="url(#p99ac8502a3)" style="fill: #ff7f0e"/>
   </g>
   <g id="patch_33">
    <path d="M 126.7994 307.584 
L 136.769597 307.584 
L 136.769597 68.191215 
L 126.7994 68.191215 
z
" clip-path="url(#p99ac8502a3)" style="fill: #ff7f0e"/>
   </g>
   <g id="patch_34">
    <path d="M 139.262146 307.584 
L 149.232343 307.584 
L 149.232343 289.681393 
L 139.262146 289.681393 
z
" clip-path="url(#p99ac8502a3)" style="fill: #ff7f0e"/>
   </g>
   <g id="patch_35">
    <path d="M 151.724893 307.584 
L 161.69509 307.584 
L 161.69509 263.591619 
L 151.724893 263.591619 
z
" clip-path="url(#p99ac8502a3)" style="fill: #ff7f0e"/>
   </g>
   <g id="patch_36">
    <path d="M 164.187639 307.584 
L 174.157836 307.584 
L 174.157836 222.65578 
L 164.187639 222.65578 
z
" clip-path="url(#p99ac8502a3)" style="fill: #ff7f0e"/>
   </g>
   <g id="patch_37">
    <path d="M 176.650386 307.584 
L 186.620583 307.584 
L 186.620583 182.265752 
L 176.650386 182.265752 
z
" clip-path="url(#p99ac8502a3)" style="fill: #ff7f0e"/>
   </g>
   <g id="patch_38">
    <path d="M 189.113132 307.584 
L 199.083329 307.584 
L 199.083329 303.217511 
L 189.113132 303.217511 
z
" clip-path="url(#p99ac8502a3)" style="fill: #ff7f0e"/>
   </g>
   <g id="patch_39">
    <path d="M 201.575879 307.584 
L 211.546076 307.584 
L 211.546076 291.427989 
L 201.575879 291.427989 
z
" clip-path="url(#p99ac8502a3)" style="fill: #ff7f0e"/>
   </g>
   <g id="patch_40">
    <path d="M 214.038625 307.584 
L 224.008822 307.584 
L 224.008822 256.277749 
L 214.038625 256.277749 
z
" clip-path="url(#p99ac8502a3)" style="fill: #ff7f0e"/>
   </g>
   <g id="patch_41">
    <path d="M 226.501371 307.584 
L 236.471569 307.584 
L 236.471569 270.141353 
L 226.501371 270.141353 
z
" clip-path="url(#p99ac8502a3)" style="fill: #ff7f0e"/>
   </g>
   <g id="patch_42">
    <path d="M 238.964118 307.584 
L 248.934315 307.584 
L 248.934315 169.493771 
L 238.964118 169.493771 
z
" clip-path="url(#p99ac8502a3)" style="fill: #ff7f0e"/>
   </g>
   <g id="patch_43">
    <path d="M 251.426864 307.584 
L 261.397062 307.584 
L 261.397062 268.722244 
L 251.426864 268.722244 
z
" clip-path="url(#p99ac8502a3)" style="fill: #ff7f0e"/>
   </g>
   <g id="patch_44">
    <path d="M 263.889611 307.584 
L 273.859808 307.584 
L 273.859808 301.798401 
L 263.889611 301.798401 
z
" clip-path="url(#p99ac8502a3)" style="fill: #ff7f0e"/>
   </g>
   <g id="patch_45">
    <path d="M 276.352357 307.584 
L 286.322555 307.584 
L 286.322555 307.584 
L 276.352357 307.584 
z
" clip-path="url(#p99ac8502a3)" style="fill: #ff7f0e"/>
   </g>
   <g id="patch_46">
    <path d="M 288.815104 307.584 
L 298.785301 307.584 
L 298.785301 208.573851 
L 288.815104 208.573851 
z
" clip-path="url(#p99ac8502a3)" style="fill: #ff7f0e"/>
   </g>
   <g id="patch_47">
    <path d="M 301.27785 307.584 
L 311.248047 307.584 
L 311.248047 199.73171 
L 301.27785 199.73171 
z
" clip-path="url(#p99ac8502a3)" style="fill: #ff7f0e"/>
   </g>
   <g id="patch_48">
    <path d="M 313.740597 307.584 
L 323.710794 307.584 
L 323.710794 224.511538 
L 313.740597 224.511538 
z
" clip-path="url(#p99ac8502a3)" style="fill: #ff7f0e"/>
   </g>
   <g id="patch_49">
    <path d="M 326.203343 307.584 
L 336.17354 307.584 
L 336.17354 248.308905 
L 326.203343 248.308905 
z
" clip-path="url(#p99ac8502a3)" style="fill: #ff7f0e"/>
   </g>
   <g id="patch_50">
    <path d="M 338.66609 307.584 
L 348.636287 307.584 
L 348.636287 296.667776 
L 338.66609 296.667776 
z
" clip-path="url(#p99ac8502a3)" style="fill: #ff7f0e"/>
   </g>
   <g id="patch_51">
    <path d="M 351.128836 307.584 
L 361.099033 307.584 
L 361.099033 283.022497 
L 351.128836 283.022497 
z
" clip-path="url(#p99ac8502a3)" style="fill: #ff7f0e"/>
   </g>
   <g id="patch_52">
    <path d="M 363.591583 307.584 
L 373.56178 307.584 
L 373.56178 307.584 
L 363.591583 307.584 
z
" clip-path="url(#p99ac8502a3)" style="fill: #ff7f0e"/>
   </g>
   <g id="patch_53">
    <path d="M 376.054329 307.584 
L 386.024526 307.584 
L 386.024526 307.474838 
L 376.054329 307.474838 
z
" clip-path="url(#p99ac8502a3)" style="fill: #ff7f0e"/>
   </g>
   <g id="patch_54">
    <path d="M 388.517076 307.584 
L 398.487273 307.584 
L 398.487273 290.336367 
L 388.517076 290.336367 
z
" clip-path="url(#p99ac8502a3)" style="fill: #ff7f0e"/>
   </g>
   <g id="matplotlib.axis_1">
    <g id="xtick_1">
     <g id="line2d_1">
      <defs>
       <path id="m998d1ada6c" d="M 0 0 
L 0 3.5 
" style="stroke: #000000; stroke-width: 0.8"/>
      </defs>
      <g>
       <use xlink:href="#m998d1ada6c" x="80.375669" y="307.584" style="stroke: #000000; stroke-width: 0.8"/>
      </g>
     </g>
     <g id="text_1">
      <!-- a -->
      <g transform="translate(77.311607 322.182437) scale(0.1 -0.1)">
       <defs>
        <path id="DejaVuSans-61" d="M 2194 1759 
Q 1497 1759 1228 1600 
Q 959 1441 959 1056 
Q 959 750 1161 570 
Q 1363 391 1709 391 
Q 2188 391 2477 730 
Q 2766 1069 2766 1631 
L 2766 1759 
L 2194 1759 
z
M 3341 1997 
L 3341 0 
L 2766 0 
L 2766 531 
Q 2569 213 2275 61 
Q 1981 -91 1556 -91 
Q 1019 -91 701 211 
Q 384 513 384 1019 
Q 384 1609 779 1909 
Q 1175 2209 1959 2209 
L 2766 2209 
L 2766 2266 
Q 2766 2663 2505 2880 
Q 2244 3097 1772 3097 
Q 1472 3097 1187 3025 
Q 903 2953 641 2809 
L 641 3341 
Q 956 3463 1253 3523 
Q 1550 3584 1831 3584 
Q 2591 3584 2966 3190 
Q 3341 2797 3341 1997 
z
" transform="scale(0.015625)"/>
       </defs>
       <use xlink:href="#DejaVuSans-61"/>
      </g>
     </g>
    </g>
    <g id="xtick_2">
     <g id="line2d_2">
      <g>
       <use xlink:href="#m998d1ada6c" x="92.838416" y="307.584" style="stroke: #000000; stroke-width: 0.8"/>
      </g>
     </g>
     <g id="text_2">
      <!-- b -->
      <g transform="translate(89.664197 322.182437) scale(0.1 -0.1)">
       <defs>
        <path id="DejaVuSans-62" d="M 3116 1747 
Q 3116 2381 2855 2742 
Q 2594 3103 2138 3103 
Q 1681 3103 1420 2742 
Q 1159 2381 1159 1747 
Q 1159 1113 1420 752 
Q 1681 391 2138 391 
Q 2594 391 2855 752 
Q 3116 1113 3116 1747 
z
M 1159 2969 
Q 1341 3281 1617 3432 
Q 1894 3584 2278 3584 
Q 2916 3584 3314 3078 
Q 3713 2572 3713 1747 
Q 3713 922 3314 415 
Q 2916 -91 2278 -91 
Q 1894 -91 1617 61 
Q 1341 213 1159 525 
L 1159 0 
L 581 0 
L 581 4863 
L 1159 4863 
L 1159 2969 
z
" transform="scale(0.015625)"/>
       </defs>
       <use xlink:href="#DejaVuSans-62"/>
      </g>
     </g>
    </g>
    <g id="xtick_3">
     <g id="line2d_3">
      <g>
       <use xlink:href="#m998d1ada6c" x="105.301162" y="307.584" style="stroke: #000000; stroke-width: 0.8"/>
      </g>
     </g>
     <g id="text_3">
      <!-- c -->
      <g transform="translate(102.551943 322.182437) scale(0.1 -0.1)">
       <defs>
        <path id="DejaVuSans-63" d="M 3122 3366 
L 3122 2828 
Q 2878 2963 2633 3030 
Q 2388 3097 2138 3097 
Q 1578 3097 1268 2742 
Q 959 2388 959 1747 
Q 959 1106 1268 751 
Q 1578 397 2138 397 
Q 2388 397 2633 464 
Q 2878 531 3122 666 
L 3122 134 
Q 2881 22 2623 -34 
Q 2366 -91 2075 -91 
Q 1284 -91 818 406 
Q 353 903 353 1747 
Q 353 2603 823 3093 
Q 1294 3584 2113 3584 
Q 2378 3584 2631 3529 
Q 2884 3475 3122 3366 
z
" transform="scale(0.015625)"/>
       </defs>
       <use xlink:href="#DejaVuSans-63"/>
      </g>
     </g>
    </g>
    <g id="xtick_4">
     <g id="line2d_4">
      <g>
       <use xlink:href="#m998d1ada6c" x="117.763909" y="307.584" style="stroke: #000000; stroke-width: 0.8"/>
      </g>
     </g>
     <g id="text_4">
      <!-- d -->
      <g transform="translate(114.58969 322.182437) scale(0.1 -0.1)">
       <defs>
        <path id="DejaVuSans-64" d="M 2906 2969 
L 2906 4863 
L 3481 4863 
L 3481 0 
L 2906 0 
L 2906 525 
Q 2725 213 2448 61 
Q 2172 -91 1784 -91 
Q 1150 -91 751 415 
Q 353 922 353 1747 
Q 353 2572 751 3078 
Q 1150 3584 1784 3584 
Q 2172 3584 2448 3432 
Q 2725 3281 2906 2969 
z
M 947 1747 
Q 947 1113 1208 752 
Q 1469 391 1925 391 
Q 2381 391 2643 752 
Q 2906 1113 2906 1747 
Q 2906 2381 2643 2742 
Q 2381 3103 1925 3103 
Q 1469 3103 1208 2742 
Q 947 2381 947 1747 
z
" transform="scale(0.015625)"/>
       </defs>
       <use xlink:href="#DejaVuSans-64"/>
      </g>
     </g>
    </g>
    <g id="xtick_5">
     <g id="line2d_5">
      <g>
       <use xlink:href="#m998d1ada6c" x="130.226655" y="307.584" style="stroke: #000000; stroke-width: 0.8"/>
      </g>
     </g>
     <g id="text_5">
      <!-- e -->
      <g transform="translate(127.150093 322.182437) scale(0.1 -0.1)">
       <defs>
        <path id="DejaVuSans-65" d="M 3597 1894 
L 3597 1613 
L 953 1613 
Q 991 1019 1311 708 
Q 1631 397 2203 397 
Q 2534 397 2845 478 
Q 3156 559 3463 722 
L 3463 178 
Q 3153 47 2828 -22 
Q 2503 -91 2169 -91 
Q 1331 -91 842 396 
Q 353 884 353 1716 
Q 353 2575 817 3079 
Q 1281 3584 2069 3584 
Q 2775 3584 3186 3129 
Q 3597 2675 3597 1894 
z
M 3022 2063 
Q 3016 2534 2758 2815 
Q 2500 3097 2075 3097 
Q 1594 3097 1305 2825 
Q 1016 2553 972 2059 
L 3022 2063 
z
" transform="scale(0.015625)"/>
       </defs>
       <use xlink:href="#DejaVuSans-65"/>
      </g>
     </g>
    </g>
    <g id="xtick_6">
     <g id="line2d_6">
      <g>
       <use xlink:href="#m998d1ada6c" x="142.689402" y="307.584" style="stroke: #000000; stroke-width: 0.8"/>
      </g>
     </g>
     <g id="text_6">
      <!-- f -->
      <g transform="translate(140.929245 322.182437) scale(0.1 -0.1)">
       <defs>
        <path id="DejaVuSans-66" d="M 2375 4863 
L 2375 4384 
L 1825 4384 
Q 1516 4384 1395 4259 
Q 1275 4134 1275 3809 
L 1275 3500 
L 2222 3500 
L 2222 3053 
L 1275 3053 
L 1275 0 
L 697 0 
L 697 3053 
L 147 3053 
L 147 3500 
L 697 3500 
L 697 3744 
Q 697 4328 969 4595 
Q 1241 4863 1831 4863 
L 2375 4863 
z
" transform="scale(0.015625)"/>
       </defs>
       <use xlink:href="#DejaVuSans-66"/>
      </g>
     </g>
    </g>
    <g id="xtick_7">
     <g id="line2d_7">
      <g>
       <use xlink:href="#m998d1ada6c" x="155.152148" y="307.584" style="stroke: #000000; stroke-width: 0.8"/>
      </g>
     </g>
     <g id="text_7">
      <!-- g -->
      <g transform="translate(151.977929 322.182437) scale(0.1 -0.1)">
       <defs>
        <path id="DejaVuSans-67" d="M 2906 1791 
Q 2906 2416 2648 2759 
Q 2391 3103 1925 3103 
Q 1463 3103 1205 2759 
Q 947 2416 947 1791 
Q 947 1169 1205 825 
Q 1463 481 1925 481 
Q 2391 481 2648 825 
Q 2906 1169 2906 1791 
z
M 3481 434 
Q 3481 -459 3084 -895 
Q 2688 -1331 1869 -1331 
Q 1566 -1331 1297 -1286 
Q 1028 -1241 775 -1147 
L 775 -588 
Q 1028 -725 1275 -790 
Q 1522 -856 1778 -856 
Q 2344 -856 2625 -561 
Q 2906 -266 2906 331 
L 2906 616 
Q 2728 306 2450 153 
Q 2172 0 1784 0 
Q 1141 0 747 490 
Q 353 981 353 1791 
Q 353 2603 747 3093 
Q 1141 3584 1784 3584 
Q 2172 3584 2450 3431 
Q 2728 3278 2906 2969 
L 2906 3500 
L 3481 3500 
L 3481 434 
z
" transform="scale(0.015625)"/>
       </defs>
       <use xlink:href="#DejaVuSans-67"/>
      </g>
     </g>
    </g>
    <g id="xtick_8">
     <g id="line2d_8">
      <g>
       <use xlink:href="#m998d1ada6c" x="167.614894" y="307.584" style="stroke: #000000; stroke-width: 0.8"/>
      </g>
     </g>
     <g id="text_8">
      <!-- h -->
      <g transform="translate(164.446144 322.182437) scale(0.1 -0.1)">
       <defs>
        <path id="DejaVuSans-68" d="M 3513 2113 
L 3513 0 
L 2938 0 
L 2938 2094 
Q 2938 2591 2744 2837 
Q 2550 3084 2163 3084 
Q 1697 3084 1428 2787 
Q 1159 2491 1159 1978 
L 1159 0 
L 581 0 
L 581 4863 
L 1159 4863 
L 1159 2956 
Q 1366 3272 1645 3428 
Q 1925 3584 2291 3584 
Q 2894 3584 3203 3211 
Q 3513 2838 3513 2113 
z
" transform="scale(0.015625)"/>
       </defs>
       <use xlink:href="#DejaVuSans-68"/>
      </g>
     </g>
    </g>
    <g id="xtick_9">
     <g id="line2d_9">
      <g>
       <use xlink:href="#m998d1ada6c" x="180.077641" y="307.584" style="stroke: #000000; stroke-width: 0.8"/>
      </g>
     </g>
     <g id="text_9">
      <!-- i -->
      <g transform="translate(178.688578 322.182437) scale(0.1 -0.1)">
       <defs>
        <path id="DejaVuSans-69" d="M 603 3500 
L 1178 3500 
L 1178 0 
L 603 0 
L 603 3500 
z
M 603 4863 
L 1178 4863 
L 1178 4134 
L 603 4134 
L 603 4863 
z
" transform="scale(0.015625)"/>
       </defs>
       <use xlink:href="#DejaVuSans-69"/>
      </g>
     </g>
    </g>
    <g id="xtick_10">
     <g id="line2d_10">
      <g>
       <use xlink:href="#m998d1ada6c" x="192.540387" y="307.584" style="stroke: #000000; stroke-width: 0.8"/>
      </g>
     </g>
     <g id="text_10">
      <!-- j -->
      <g transform="translate(191.151325 322.182437) scale(0.1 -0.1)">
       <defs>
        <path id="DejaVuSans-6a" d="M 603 3500 
L 1178 3500 
L 1178 -63 
Q 1178 -731 923 -1031 
Q 669 -1331 103 -1331 
L -116 -1331 
L -116 -844 
L 38 -844 
Q 366 -844 484 -692 
Q 603 -541 603 -63 
L 603 3500 
z
M 603 4863 
L 1178 4863 
L 1178 4134 
L 603 4134 
L 603 4863 
z
" transform="scale(0.015625)"/>
       </defs>
       <use xlink:href="#DejaVuSans-6a"/>
      </g>
     </g>
    </g>
    <g id="xtick_11">
     <g id="line2d_11">
      <g>
       <use xlink:href="#m998d1ada6c" x="205.003134" y="307.584" style="stroke: #000000; stroke-width: 0.8"/>
      </g>
     </g>
     <g id="text_11">
      <!-- k -->
      <g transform="translate(202.107821 322.182437) scale(0.1 -0.1)">
       <defs>
        <path id="DejaVuSans-6b" d="M 581 4863 
L 1159 4863 
L 1159 1991 
L 2875 3500 
L 3609 3500 
L 1753 1863 
L 3688 0 
L 2938 0 
L 1159 1709 
L 1159 0 
L 581 0 
L 581 4863 
z
" transform="scale(0.015625)"/>
       </defs>
       <use xlink:href="#DejaVuSans-6b"/>
      </g>
     </g>
    </g>
    <g id="xtick_12">
     <g id="line2d_12">
      <g>
       <use xlink:href="#m998d1ada6c" x="217.46588" y="307.584" style="stroke: #000000; stroke-width: 0.8"/>
      </g>
     </g>
     <g id="text_12">
      <!-- l -->
      <g transform="translate(216.076818 322.182437) scale(0.1 -0.1)">
       <defs>
        <path id="DejaVuSans-6c" d="M 603 4863 
L 1178 4863 
L 1178 0 
L 603 0 
L 603 4863 
z
" transform="scale(0.015625)"/>
       </defs>
       <use xlink:href="#DejaVuSans-6c"/>
      </g>
     </g>
    </g>
    <g id="xtick_13">
     <g id="line2d_13">
      <g>
       <use xlink:href="#m998d1ada6c" x="229.928627" y="307.584" style="stroke: #000000; stroke-width: 0.8"/>
      </g>
     </g>
     <g id="text_13">
      <!-- m -->
      <g transform="translate(225.058314 322.182437) scale(0.1 -0.1)">
       <defs>
        <path id="DejaVuSans-6d" d="M 3328 2828 
Q 3544 3216 3844 3400 
Q 4144 3584 4550 3584 
Q 5097 3584 5394 3201 
Q 5691 2819 5691 2113 
L 5691 0 
L 5113 0 
L 5113 2094 
Q 5113 2597 4934 2840 
Q 4756 3084 4391 3084 
Q 3944 3084 3684 2787 
Q 3425 2491 3425 1978 
L 3425 0 
L 2847 0 
L 2847 2094 
Q 2847 2600 2669 2842 
Q 2491 3084 2119 3084 
Q 1678 3084 1418 2786 
Q 1159 2488 1159 1978 
L 1159 0 
L 581 0 
L 581 3500 
L 1159 3500 
L 1159 2956 
Q 1356 3278 1631 3431 
Q 1906 3584 2284 3584 
Q 2666 3584 2933 3390 
Q 3200 3197 3328 2828 
z
" transform="scale(0.015625)"/>
       </defs>
       <use xlink:href="#DejaVuSans-6d"/>
      </g>
     </g>
    </g>
    <g id="xtick_14">
     <g id="line2d_14">
      <g>
       <use xlink:href="#m998d1ada6c" x="242.391373" y="307.584" style="stroke: #000000; stroke-width: 0.8"/>
      </g>
     </g>
     <g id="text_14">
      <!-- n -->
      <g transform="translate(239.222623 322.182437) scale(0.1 -0.1)">
       <defs>
        <path id="DejaVuSans-6e" d="M 3513 2113 
L 3513 0 
L 2938 0 
L 2938 2094 
Q 2938 2591 2744 2837 
Q 2550 3084 2163 3084 
Q 1697 3084 1428 2787 
Q 1159 2491 1159 1978 
L 1159 0 
L 581 0 
L 581 3500 
L 1159 3500 
L 1159 2956 
Q 1366 3272 1645 3428 
Q 1925 3584 2291 3584 
Q 2894 3584 3203 3211 
Q 3513 2838 3513 2113 
z
" transform="scale(0.015625)"/>
       </defs>
       <use xlink:href="#DejaVuSans-6e"/>
      </g>
     </g>
    </g>
    <g id="xtick_15">
     <g id="line2d_15">
      <g>
       <use xlink:href="#m998d1ada6c" x="254.85412" y="307.584" style="stroke: #000000; stroke-width: 0.8"/>
      </g>
     </g>
     <g id="text_15">
      <!-- o -->
      <g transform="translate(251.794745 322.182437) scale(0.1 -0.1)">
       <defs>
        <path id="DejaVuSans-6f" d="M 1959 3097 
Q 1497 3097 1228 2736 
Q 959 2375 959 1747 
Q 959 1119 1226 758 
Q 1494 397 1959 397 
Q 2419 397 2687 759 
Q 2956 1122 2956 1747 
Q 2956 2369 2687 2733 
Q 2419 3097 1959 3097 
z
M 1959 3584 
Q 2709 3584 3137 3096 
Q 3566 2609 3566 1747 
Q 3566 888 3137 398 
Q 2709 -91 1959 -91 
Q 1206 -91 779 398 
Q 353 888 353 1747 
Q 353 2609 779 3096 
Q 1206 3584 1959 3584 
z
" transform="scale(0.015625)"/>
       </defs>
       <use xlink:href="#DejaVuSans-6f"/>
      </g>
     </g>
    </g>
    <g id="xtick_16">
     <g id="line2d_16">
      <g>
       <use xlink:href="#m998d1ada6c" x="267.316866" y="307.584" style="stroke: #000000; stroke-width: 0.8"/>
      </g>
     </g>
     <g id="text_16">
      <!-- p -->
      <g transform="translate(264.142647 322.182437) scale(0.1 -0.1)">
       <defs>
        <path id="DejaVuSans-70" d="M 1159 525 
L 1159 -1331 
L 581 -1331 
L 581 3500 
L 1159 3500 
L 1159 2969 
Q 1341 3281 1617 3432 
Q 1894 3584 2278 3584 
Q 2916 3584 3314 3078 
Q 3713 2572 3713 1747 
Q 3713 922 3314 415 
Q 2916 -91 2278 -91 
Q 1894 -91 1617 61 
Q 1341 213 1159 525 
z
M 3116 1747 
Q 3116 2381 2855 2742 
Q 2594 3103 2138 3103 
Q 1681 3103 1420 2742 
Q 1159 2381 1159 1747 
Q 1159 1113 1420 752 
Q 1681 391 2138 391 
Q 2594 391 2855 752 
Q 3116 1113 3116 1747 
z
" transform="scale(0.015625)"/>
       </defs>
       <use xlink:href="#DejaVuSans-70"/>
      </g>
     </g>
    </g>
    <g id="xtick_17">
     <g id="line2d_17">
      <g>
       <use xlink:href="#m998d1ada6c" x="279.779613" y="307.584" style="stroke: #000000; stroke-width: 0.8"/>
      </g>
     </g>
     <g id="text_17">
      <!-- q -->
      <g transform="translate(276.605394 322.182437) scale(0.1 -0.1)">
       <defs>
        <path id="DejaVuSans-71" d="M 947 1747 
Q 947 1113 1208 752 
Q 1469 391 1925 391 
Q 2381 391 2643 752 
Q 2906 1113 2906 1747 
Q 2906 2381 2643 2742 
Q 2381 3103 1925 3103 
Q 1469 3103 1208 2742 
Q 947 2381 947 1747 
z
M 2906 525 
Q 2725 213 2448 61 
Q 2172 -91 1784 -91 
Q 1150 -91 751 415 
Q 353 922 353 1747 
Q 353 2572 751 3078 
Q 1150 3584 1784 3584 
Q 2172 3584 2448 3432 
Q 2725 3281 2906 2969 
L 2906 3500 
L 3481 3500 
L 3481 -1331 
L 2906 -1331 
L 2906 525 
z
" transform="scale(0.015625)"/>
       </defs>
       <use xlink:href="#DejaVuSans-71"/>
      </g>
     </g>
    </g>
    <g id="xtick_18">
     <g id="line2d_18">
      <g>
       <use xlink:href="#m998d1ada6c" x="292.242359" y="307.584" style="stroke: #000000; stroke-width: 0.8"/>
      </g>
     </g>
     <g id="text_18">
      <!-- r -->
      <g transform="translate(290.18689 322.182437) scale(0.1 -0.1)">
       <defs>
        <path id="DejaVuSans-72" d="M 2631 2963 
Q 2534 3019 2420 3045 
Q 2306 3072 2169 3072 
Q 1681 3072 1420 2755 
Q 1159 2438 1159 1844 
L 1159 0 
L 581 0 
L 581 3500 
L 1159 3500 
L 1159 2956 
Q 1341 3275 1631 3429 
Q 1922 3584 2338 3584 
Q 2397 3584 2469 3576 
Q 2541 3569 2628 3553 
L 2631 2963 
z
" transform="scale(0.015625)"/>
       </defs>
       <use xlink:href="#DejaVuSans-72"/>
      </g>
     </g>
    </g>
    <g id="xtick_19">
     <g id="line2d_19">
      <g>
       <use xlink:href="#m998d1ada6c" x="304.705106" y="307.584" style="stroke: #000000; stroke-width: 0.8"/>
      </g>
     </g>
     <g id="text_19">
      <!-- s -->
      <g transform="translate(302.100418 322.182437) scale(0.1 -0.1)">
       <defs>
        <path id="DejaVuSans-73" d="M 2834 3397 
L 2834 2853 
Q 2591 2978 2328 3040 
Q 2066 3103 1784 3103 
Q 1356 3103 1142 2972 
Q 928 2841 928 2578 
Q 928 2378 1081 2264 
Q 1234 2150 1697 2047 
L 1894 2003 
Q 2506 1872 2764 1633 
Q 3022 1394 3022 966 
Q 3022 478 2636 193 
Q 2250 -91 1575 -91 
Q 1294 -91 989 -36 
Q 684 19 347 128 
L 347 722 
Q 666 556 975 473 
Q 1284 391 1588 391 
Q 1994 391 2212 530 
Q 2431 669 2431 922 
Q 2431 1156 2273 1281 
Q 2116 1406 1581 1522 
L 1381 1569 
Q 847 1681 609 1914 
Q 372 2147 372 2553 
Q 372 3047 722 3315 
Q 1072 3584 1716 3584 
Q 2034 3584 2315 3537 
Q 2597 3491 2834 3397 
z
" transform="scale(0.015625)"/>
       </defs>
       <use xlink:href="#DejaVuSans-73"/>
      </g>
     </g>
    </g>
    <g id="xtick_20">
     <g id="line2d_20">
      <g>
       <use xlink:href="#m998d1ada6c" x="317.167852" y="307.584" style="stroke: #000000; stroke-width: 0.8"/>
      </g>
     </g>
     <g id="text_20">
      <!-- t -->
      <g transform="translate(315.207696 322.182437) scale(0.1 -0.1)">
       <defs>
        <path id="DejaVuSans-74" d="M 1172 4494 
L 1172 3500 
L 2356 3500 
L 2356 3053 
L 1172 3053 
L 1172 1153 
Q 1172 725 1289 603 
Q 1406 481 1766 481 
L 2356 481 
L 2356 0 
L 1766 0 
Q 1100 0 847 248 
Q 594 497 594 1153 
L 594 3053 
L 172 3053 
L 172 3500 
L 594 3500 
L 594 4494 
L 1172 4494 
z
" transform="scale(0.015625)"/>
       </defs>
       <use xlink:href="#DejaVuSans-74"/>
      </g>
     </g>
    </g>
    <g id="xtick_21">
     <g id="line2d_21">
      <g>
       <use xlink:href="#m998d1ada6c" x="329.630598" y="307.584" style="stroke: #000000; stroke-width: 0.8"/>
      </g>
     </g>
     <g id="text_21">
      <!-- u -->
      <g transform="translate(326.461848 322.182437) scale(0.1 -0.1)">
       <defs>
        <path id="DejaVuSans-75" d="M 544 1381 
L 544 3500 
L 1119 3500 
L 1119 1403 
Q 1119 906 1312 657 
Q 1506 409 1894 409 
Q 2359 409 2629 706 
Q 2900 1003 2900 1516 
L 2900 3500 
L 3475 3500 
L 3475 0 
L 2900 0 
L 2900 538 
Q 2691 219 2414 64 
Q 2138 -91 1772 -91 
Q 1169 -91 856 284 
Q 544 659 544 1381 
z
M 1991 3584 
L 1991 3584 
z
" transform="scale(0.015625)"/>
       </defs>
       <use xlink:href="#DejaVuSans-75"/>
      </g>
     </g>
    </g>
    <g id="xtick_22">
     <g id="line2d_22">
      <g>
       <use xlink:href="#m998d1ada6c" x="342.093345" y="307.584" style="stroke: #000000; stroke-width: 0.8"/>
      </g>
     </g>
     <g id="text_22">
      <!-- v -->
      <g transform="translate(339.13397 322.182437) scale(0.1 -0.1)">
       <defs>
        <path id="DejaVuSans-76" d="M 191 3500 
L 800 3500 
L 1894 563 
L 2988 3500 
L 3597 3500 
L 2284 0 
L 1503 0 
L 191 3500 
z
" transform="scale(0.015625)"/>
       </defs>
       <use xlink:href="#DejaVuSans-76"/>
      </g>
     </g>
    </g>
    <g id="xtick_23">
     <g id="line2d_23">
      <g>
       <use xlink:href="#m998d1ada6c" x="354.556091" y="307.584" style="stroke: #000000; stroke-width: 0.8"/>
      </g>
     </g>
     <g id="text_23">
      <!-- w -->
      <g transform="translate(350.467029 322.182437) scale(0.1 -0.1)">
       <defs>
        <path id="DejaVuSans-77" d="M 269 3500 
L 844 3500 
L 1563 769 
L 2278 3500 
L 2956 3500 
L 3675 769 
L 4391 3500 
L 4966 3500 
L 4050 0 
L 3372 0 
L 2619 2869 
L 1863 0 
L 1184 0 
L 269 3500 
z
" transform="scale(0.015625)"/>
       </defs>
       <use xlink:href="#DejaVuSans-77"/>
      </g>
     </g>
    </g>
    <g id="xtick_24">
     <g id="line2d_24">
      <g>
       <use xlink:href="#m998d1ada6c" x="367.018838" y="307.584" style="stroke: #000000; stroke-width: 0.8"/>
      </g>
     </g>
     <g id="text_24">
      <!-- x -->
      <g transform="translate(364.059463 322.182437) scale(0.1 -0.1)">
       <defs>
        <path id="DejaVuSans-78" d="M 3513 3500 
L 2247 1797 
L 3578 0 
L 2900 0 
L 1881 1375 
L 863 0 
L 184 0 
L 1544 1831 
L 300 3500 
L 978 3500 
L 1906 2253 
L 2834 3500 
L 3513 3500 
z
" transform="scale(0.015625)"/>
       </defs>
       <use xlink:href="#DejaVuSans-78"/>
      </g>
     </g>
    </g>
    <g id="xtick_25">
     <g id="line2d_25">
      <g>
       <use xlink:href="#m998d1ada6c" x="379.481584" y="307.584" style="stroke: #000000; stroke-width: 0.8"/>
      </g>
     </g>
     <g id="text_25">
      <!-- y -->
      <g transform="translate(376.522209 322.182437) scale(0.1 -0.1)">
       <defs>
        <path id="DejaVuSans-79" d="M 2059 -325 
Q 1816 -950 1584 -1140 
Q 1353 -1331 966 -1331 
L 506 -1331 
L 506 -850 
L 844 -850 
Q 1081 -850 1212 -737 
Q 1344 -625 1503 -206 
L 1606 56 
L 191 3500 
L 800 3500 
L 1894 763 
L 2988 3500 
L 3597 3500 
L 2059 -325 
z
" transform="scale(0.015625)"/>
       </defs>
       <use xlink:href="#DejaVuSans-79"/>
      </g>
     </g>
    </g>
    <g id="xtick_26">
     <g id="line2d_26">
      <g>
       <use xlink:href="#m998d1ada6c" x="391.944331" y="307.584" style="stroke: #000000; stroke-width: 0.8"/>
      </g>
     </g>
     <g id="text_26">
      <!-- z -->
      <g transform="translate(389.320112 322.182437) scale(0.1 -0.1)">
       <defs>
        <path id="DejaVuSans-7a" d="M 353 3500 
L 3084 3500 
L 3084 2975 
L 922 459 
L 3084 459 
L 3084 0 
L 275 0 
L 275 525 
L 2438 3041 
L 353 3041 
L 353 3500 
z
" transform="scale(0.015625)"/>
       </defs>
       <use xlink:href="#DejaVuSans-7a"/>
      </g>
     </g>
    </g>
   </g>
   <g id="matplotlib.axis_2">
    <g id="ytick_1">
     <g id="line2d_27">
      <defs>
       <path id="mb010f425d8" d="M 0 0 
L -3.5 0 
" style="stroke: #000000; stroke-width: 0.8"/>
      </defs>
      <g>
       <use xlink:href="#mb010f425d8" x="57.6" y="307.584" style="stroke: #000000; stroke-width: 0.8"/>
      </g>
     </g>
     <g id="text_27">
      <!-- 0.000 -->
      <g transform="translate(21.971875 311.383219) scale(0.1 -0.1)">
       <defs>
        <path id="DejaVuSans-30" d="M 2034 4250 
Q 1547 4250 1301 3770 
Q 1056 3291 1056 2328 
Q 1056 1369 1301 889 
Q 1547 409 2034 409 
Q 2525 409 2770 889 
Q 3016 1369 3016 2328 
Q 3016 3291 2770 3770 
Q 2525 4250 2034 4250 
z
M 2034 4750 
Q 2819 4750 3233 4129 
Q 3647 3509 3647 2328 
Q 3647 1150 3233 529 
Q 2819 -91 2034 -91 
Q 1250 -91 836 529 
Q 422 1150 422 2328 
Q 422 3509 836 4129 
Q 1250 4750 2034 4750 
z
" transform="scale(0.015625)"/>
        <path id="DejaVuSans-2e" d="M 684 794 
L 1344 794 
L 1344 0 
L 684 0 
L 684 794 
z
" transform="scale(0.015625)"/>
       </defs>
       <use xlink:href="#DejaVuSans-30"/>
       <use xlink:href="#DejaVuSans-2e" transform="translate(63.623047 0)"/>
       <use xlink:href="#DejaVuSans-30" transform="translate(95.410156 0)"/>
       <use xlink:href="#DejaVuSans-30" transform="translate(159.033203 0)"/>
       <use xlink:href="#DejaVuSans-30" transform="translate(222.65625 0)"/>
      </g>
     </g>
    </g>
    <g id="ytick_2">
     <g id="line2d_28">
      <g>
       <use xlink:href="#mb010f425d8" x="57.6" y="271.170207" style="stroke: #000000; stroke-width: 0.8"/>
      </g>
     </g>
     <g id="text_28">
      <!-- 0.025 -->
      <g transform="translate(21.971875 274.969426) scale(0.1 -0.1)">
       <defs>
        <path id="DejaVuSans-32" d="M 1228 531 
L 3431 531 
L 3431 0 
L 469 0 
L 469 531 
Q 828 903 1448 1529 
Q 2069 2156 2228 2338 
Q 2531 2678 2651 2914 
Q 2772 3150 2772 3378 
Q 2772 3750 2511 3984 
Q 2250 4219 1831 4219 
Q 1534 4219 1204 4116 
Q 875 4013 500 3803 
L 500 4441 
Q 881 4594 1212 4672 
Q 1544 4750 1819 4750 
Q 2544 4750 2975 4387 
Q 3406 4025 3406 3419 
Q 3406 3131 3298 2873 
Q 3191 2616 2906 2266 
Q 2828 2175 2409 1742 
Q 1991 1309 1228 531 
z
" transform="scale(0.015625)"/>
        <path id="DejaVuSans-35" d="M 691 4666 
L 3169 4666 
L 3169 4134 
L 1269 4134 
L 1269 2991 
Q 1406 3038 1543 3061 
Q 1681 3084 1819 3084 
Q 2600 3084 3056 2656 
Q 3513 2228 3513 1497 
Q 3513 744 3044 326 
Q 2575 -91 1722 -91 
Q 1428 -91 1123 -41 
Q 819 9 494 109 
L 494 744 
Q 775 591 1075 516 
Q 1375 441 1709 441 
Q 2250 441 2565 725 
Q 2881 1009 2881 1497 
Q 2881 1984 2565 2268 
Q 2250 2553 1709 2553 
Q 1456 2553 1204 2497 
Q 953 2441 691 2322 
L 691 4666 
z
" transform="scale(0.015625)"/>
       </defs>
       <use xlink:href="#DejaVuSans-30"/>
       <use xlink:href="#DejaVuSans-2e" transform="translate(63.623047 0)"/>
       <use xlink:href="#DejaVuSans-30" transform="translate(95.410156 0)"/>
       <use xlink:href="#DejaVuSans-32" transform="translate(159.033203 0)"/>
       <use xlink:href="#DejaVuSans-35" transform="translate(222.65625 0)"/>
      </g>
     </g>
    </g>
    <g id="ytick_3">
     <g id="line2d_29">
      <g>
       <use xlink:href="#mb010f425d8" x="57.6" y="234.756414" style="stroke: #000000; stroke-width: 0.8"/>
      </g>
     </g>
     <g id="text_29">
      <!-- 0.050 -->
      <g transform="translate(21.971875 238.555633) scale(0.1 -0.1)">
       <use xlink:href="#DejaVuSans-30"/>
       <use xlink:href="#DejaVuSans-2e" transform="translate(63.623047 0)"/>
       <use xlink:href="#DejaVuSans-30" transform="translate(95.410156 0)"/>
       <use xlink:href="#DejaVuSans-35" transform="translate(159.033203 0)"/>
       <use xlink:href="#DejaVuSans-30" transform="translate(222.65625 0)"/>
      </g>
     </g>
    </g>
    <g id="ytick_4">
     <g id="line2d_30">
      <g>
       <use xlink:href="#mb010f425d8" x="57.6" y="198.342621" style="stroke: #000000; stroke-width: 0.8"/>
      </g>
     </g>
     <g id="text_30">
      <!-- 0.075 -->
      <g transform="translate(21.971875 202.141839) scale(0.1 -0.1)">
       <defs>
        <path id="DejaVuSans-37" d="M 525 4666 
L 3525 4666 
L 3525 4397 
L 1831 0 
L 1172 0 
L 2766 4134 
L 525 4134 
L 525 4666 
z
" transform="scale(0.015625)"/>
       </defs>
       <use xlink:href="#DejaVuSans-30"/>
       <use xlink:href="#DejaVuSans-2e" transform="translate(63.623047 0)"/>
       <use xlink:href="#DejaVuSans-30" transform="translate(95.410156 0)"/>
       <use xlink:href="#DejaVuSans-37" transform="translate(159.033203 0)"/>
       <use xlink:href="#DejaVuSans-35" transform="translate(222.65625 0)"/>
      </g>
     </g>
    </g>
    <g id="ytick_5">
     <g id="line2d_31">
      <g>
       <use xlink:href="#mb010f425d8" x="57.6" y="161.928828" style="stroke: #000000; stroke-width: 0.8"/>
      </g>
     </g>
     <g id="text_31">
      <!-- 0.100 -->
      <g transform="translate(21.971875 165.728046) scale(0.1 -0.1)">
       <defs>
        <path id="DejaVuSans-31" d="M 794 531 
L 1825 531 
L 1825 4091 
L 703 3866 
L 703 4441 
L 1819 4666 
L 2450 4666 
L 2450 531 
L 3481 531 
L 3481 0 
L 794 0 
L 794 531 
z
" transform="scale(0.015625)"/>
       </defs>
       <use xlink:href="#DejaVuSans-30"/>
       <use xlink:href="#DejaVuSans-2e" transform="translate(63.623047 0)"/>
       <use xlink:href="#DejaVuSans-31" transform="translate(95.410156 0)"/>
       <use xlink:href="#DejaVuSans-30" transform="translate(159.033203 0)"/>
       <use xlink:href="#DejaVuSans-30" transform="translate(222.65625 0)"/>
      </g>
     </g>
    </g>
    <g id="ytick_6">
     <g id="line2d_32">
      <g>
       <use xlink:href="#mb010f425d8" x="57.6" y="125.515034" style="stroke: #000000; stroke-width: 0.8"/>
      </g>
     </g>
     <g id="text_32">
      <!-- 0.125 -->
      <g transform="translate(21.971875 129.314253) scale(0.1 -0.1)">
       <use xlink:href="#DejaVuSans-30"/>
       <use xlink:href="#DejaVuSans-2e" transform="translate(63.623047 0)"/>
       <use xlink:href="#DejaVuSans-31" transform="translate(95.410156 0)"/>
       <use xlink:href="#DejaVuSans-32" transform="translate(159.033203 0)"/>
       <use xlink:href="#DejaVuSans-35" transform="translate(222.65625 0)"/>
      </g>
     </g>
    </g>
    <g id="ytick_7">
     <g id="line2d_33">
      <g>
       <use xlink:href="#mb010f425d8" x="57.6" y="89.101241" style="stroke: #000000; stroke-width: 0.8"/>
      </g>
     </g>
     <g id="text_33">
      <!-- 0.150 -->
      <g transform="translate(21.971875 92.90046) scale(0.1 -0.1)">
       <use xlink:href="#DejaVuSans-30"/>
       <use xlink:href="#DejaVuSans-2e" transform="translate(63.623047 0)"/>
       <use xlink:href="#DejaVuSans-31" transform="translate(95.410156 0)"/>
       <use xlink:href="#DejaVuSans-35" transform="translate(159.033203 0)"/>
       <use xlink:href="#DejaVuSans-30" transform="translate(222.65625 0)"/>
      </g>
     </g>
    </g>
    <g id="ytick_8">
     <g id="line2d_34">
      <g>
       <use xlink:href="#mb010f425d8" x="57.6" y="52.687448" style="stroke: #000000; stroke-width: 0.8"/>
      </g>
     </g>
     <g id="text_34">
      <!-- 0.175 -->
      <g transform="translate(21.971875 56.486667) scale(0.1 -0.1)">
       <use xlink:href="#DejaVuSans-30"/>
       <use xlink:href="#DejaVuSans-2e" transform="translate(63.623047 0)"/>
       <use xlink:href="#DejaVuSans-31" transform="translate(95.410156 0)"/>
       <use xlink:href="#DejaVuSans-37" transform="translate(159.033203 0)"/>
       <use xlink:href="#DejaVuSans-35" transform="translate(222.65625 0)"/>
      </g>
     </g>
    </g>
   </g>
   <g id="patch_55">
    <path d="M 57.6 307.584 
L 57.6 41.472 
" style="fill: none; stroke: #000000; stroke-width: 0.8; stroke-linejoin: miter; stroke-linecap: square"/>
   </g>
   <g id="patch_56">
    <path d="M 414.72 307.584 
L 414.72 41.472 
" style="fill: none; stroke: #000000; stroke-width: 0.8; stroke-linejoin: miter; stroke-linecap: square"/>
   </g>
   <g id="patch_57">
    <path d="M 57.6 307.584 
L 414.72 307.584 
" style="fill: none; stroke: #000000; stroke-width: 0.8; stroke-linejoin: miter; stroke-linecap: square"/>
   </g>
   <g id="patch_58">
    <path d="M 57.6 41.472 
L 414.72 41.472 
" style="fill: none; stroke: #000000; stroke-width: 0.8; stroke-linejoin: miter; stroke-linecap: square"/>
   </g>
   <g id="text_35">
    <!-- Gegenüberstellung allgemeine Verteilung - 'Mann ohne Eigenschaften' -->
    <g transform="translate(24.179063 35.472) scale(0.12 -0.12)">
     <defs>
      <path id="DejaVuSans-47" d="M 3809 666 
L 3809 1919 
L 2778 1919 
L 2778 2438 
L 4434 2438 
L 4434 434 
Q 4069 175 3628 42 
Q 3188 -91 2688 -91 
Q 1594 -91 976 548 
Q 359 1188 359 2328 
Q 359 3472 976 4111 
Q 1594 4750 2688 4750 
Q 3144 4750 3555 4637 
Q 3966 4525 4313 4306 
L 4313 3634 
Q 3963 3931 3569 4081 
Q 3175 4231 2741 4231 
Q 1884 4231 1454 3753 
Q 1025 3275 1025 2328 
Q 1025 1384 1454 906 
Q 1884 428 2741 428 
Q 3075 428 3337 486 
Q 3600 544 3809 666 
z
" transform="scale(0.015625)"/>
      <path id="DejaVuSans-fc" d="M 544 1381 
L 544 3500 
L 1119 3500 
L 1119 1403 
Q 1119 906 1312 657 
Q 1506 409 1894 409 
Q 2359 409 2629 706 
Q 2900 1003 2900 1516 
L 2900 3500 
L 3475 3500 
L 3475 0 
L 2900 0 
L 2900 538 
Q 2691 219 2414 64 
Q 2138 -91 1772 -91 
Q 1169 -91 856 284 
Q 544 659 544 1381 
z
M 1991 3584 
L 1991 3584 
z
M 2278 4850 
L 2912 4850 
L 2912 4219 
L 2278 4219 
L 2278 4850 
z
M 1056 4850 
L 1690 4850 
L 1690 4219 
L 1056 4219 
L 1056 4850 
z
" transform="scale(0.015625)"/>
      <path id="DejaVuSans-20" transform="scale(0.015625)"/>
      <path id="DejaVuSans-56" d="M 1831 0 
L 50 4666 
L 709 4666 
L 2188 738 
L 3669 4666 
L 4325 4666 
L 2547 0 
L 1831 0 
z
" transform="scale(0.015625)"/>
      <path id="DejaVuSans-2d" d="M 313 2009 
L 1997 2009 
L 1997 1497 
L 313 1497 
L 313 2009 
z
" transform="scale(0.015625)"/>
      <path id="DejaVuSans-27" d="M 1147 4666 
L 1147 2931 
L 616 2931 
L 616 4666 
L 1147 4666 
z
" transform="scale(0.015625)"/>
      <path id="DejaVuSans-4d" d="M 628 4666 
L 1569 4666 
L 2759 1491 
L 3956 4666 
L 4897 4666 
L 4897 0 
L 4281 0 
L 4281 4097 
L 3078 897 
L 2444 897 
L 1241 4097 
L 1241 0 
L 628 0 
L 628 4666 
z
" transform="scale(0.015625)"/>
      <path id="DejaVuSans-45" d="M 628 4666 
L 3578 4666 
L 3578 4134 
L 1259 4134 
L 1259 2753 
L 3481 2753 
L 3481 2222 
L 1259 2222 
L 1259 531 
L 3634 531 
L 3634 0 
L 628 0 
L 628 4666 
z
" transform="scale(0.015625)"/>
     </defs>
     <use xlink:href="#DejaVuSans-47"/>
     <use xlink:href="#DejaVuSans-65" transform="translate(77.490234 0)"/>
     <use xlink:href="#DejaVuSans-67" transform="translate(139.013672 0)"/>
     <use xlink:href="#DejaVuSans-65" transform="translate(202.490234 0)"/>
     <use xlink:href="#DejaVuSans-6e" transform="translate(264.013672 0)"/>
     <use xlink:href="#DejaVuSans-fc" transform="translate(327.392578 0)"/>
     <use xlink:href="#DejaVuSans-62" transform="translate(390.771484 0)"/>
     <use xlink:href="#DejaVuSans-65" transform="translate(454.248047 0)"/>
     <use xlink:href="#DejaVuSans-72" transform="translate(515.771484 0)"/>
     <use xlink:href="#DejaVuSans-73" transform="translate(556.884766 0)"/>
     <use xlink:href="#DejaVuSans-74" transform="translate(608.984375 0)"/>
     <use xlink:href="#DejaVuSans-65" transform="translate(648.193359 0)"/>
     <use xlink:href="#DejaVuSans-6c" transform="translate(709.716797 0)"/>
     <use xlink:href="#DejaVuSans-6c" transform="translate(737.5 0)"/>
     <use xlink:href="#DejaVuSans-75" transform="translate(765.283203 0)"/>
     <use xlink:href="#DejaVuSans-6e" transform="translate(828.662109 0)"/>
     <use xlink:href="#DejaVuSans-67" transform="translate(892.041016 0)"/>
     <use xlink:href="#DejaVuSans-20" transform="translate(955.517578 0)"/>
     <use xlink:href="#DejaVuSans-61" transform="translate(987.304688 0)"/>
     <use xlink:href="#DejaVuSans-6c" transform="translate(1048.583984 0)"/>
     <use xlink:href="#DejaVuSans-6c" transform="translate(1076.367188 0)"/>
     <use xlink:href="#DejaVuSans-67" transform="translate(1104.150391 0)"/>
     <use xlink:href="#DejaVuSans-65" transform="translate(1167.626953 0)"/>
     <use xlink:href="#DejaVuSans-6d" transform="translate(1229.150391 0)"/>
     <use xlink:href="#DejaVuSans-65" transform="translate(1326.5625 0)"/>
     <use xlink:href="#DejaVuSans-69" transform="translate(1388.085938 0)"/>
     <use xlink:href="#DejaVuSans-6e" transform="translate(1415.869141 0)"/>
     <use xlink:href="#DejaVuSans-65" transform="translate(1479.248047 0)"/>
     <use xlink:href="#DejaVuSans-20" transform="translate(1540.771484 0)"/>
     <use xlink:href="#DejaVuSans-56" transform="translate(1572.558594 0)"/>
     <use xlink:href="#DejaVuSans-65" transform="translate(1633.216797 0)"/>
     <use xlink:href="#DejaVuSans-72" transform="translate(1694.740234 0)"/>
     <use xlink:href="#DejaVuSans-74" transform="translate(1735.853516 0)"/>
     <use xlink:href="#DejaVuSans-65" transform="translate(1775.0625 0)"/>
     <use xlink:href="#DejaVuSans-69" transform="translate(1836.585938 0)"/>
     <use xlink:href="#DejaVuSans-6c" transform="translate(1864.369141 0)"/>
     <use xlink:href="#DejaVuSans-75" transform="translate(1892.152344 0)"/>
     <use xlink:href="#DejaVuSans-6e" transform="translate(1955.53125 0)"/>
     <use xlink:href="#DejaVuSans-67" transform="translate(2018.910156 0)"/>
     <use xlink:href="#DejaVuSans-20" transform="translate(2082.386719 0)"/>
     <use xlink:href="#DejaVuSans-2d" transform="translate(2114.173828 0)"/>
     <use xlink:href="#DejaVuSans-20" transform="translate(2150.257812 0)"/>
     <use xlink:href="#DejaVuSans-27" transform="translate(2182.044922 0)"/>
     <use xlink:href="#DejaVuSans-4d" transform="translate(2209.535156 0)"/>
     <use xlink:href="#DejaVuSans-61" transform="translate(2295.814453 0)"/>
     <use xlink:href="#DejaVuSans-6e" transform="translate(2357.09375 0)"/>
     <use xlink:href="#DejaVuSans-6e" transform="translate(2420.472656 0)"/>
     <use xlink:href="#DejaVuSans-20" transform="translate(2483.851562 0)"/>
     <use xlink:href="#DejaVuSans-6f" transform="translate(2515.638672 0)"/>
     <use xlink:href="#DejaVuSans-68" transform="translate(2576.820312 0)"/>
     <use xlink:href="#DejaVuSans-6e" transform="translate(2640.199219 0)"/>
     <use xlink:href="#DejaVuSans-65" transform="translate(2703.578125 0)"/>
     <use xlink:href="#DejaVuSans-20" transform="translate(2765.101562 0)"/>
     <use xlink:href="#DejaVuSans-45" transform="translate(2796.888672 0)"/>
     <use xlink:href="#DejaVuSans-69" transform="translate(2860.072266 0)"/>
     <use xlink:href="#DejaVuSans-67" transform="translate(2887.855469 0)"/>
     <use xlink:href="#DejaVuSans-65" transform="translate(2951.332031 0)"/>
     <use xlink:href="#DejaVuSans-6e" transform="translate(3012.855469 0)"/>
     <use xlink:href="#DejaVuSans-73" transform="translate(3076.234375 0)"/>
     <use xlink:href="#DejaVuSans-63" transform="translate(3128.333984 0)"/>
     <use xlink:href="#DejaVuSans-68" transform="translate(3183.314453 0)"/>
     <use xlink:href="#DejaVuSans-61" transform="translate(3246.693359 0)"/>
     <use xlink:href="#DejaVuSans-66" transform="translate(3307.972656 0)"/>
     <use xlink:href="#DejaVuSans-74" transform="translate(3341.427734 0)"/>
     <use xlink:href="#DejaVuSans-65" transform="translate(3380.636719 0)"/>
     <use xlink:href="#DejaVuSans-6e" transform="translate(3442.160156 0)"/>
     <use xlink:href="#DejaVuSans-27" transform="translate(3505.539062 0)"/>
    </g>
   </g>
   <g id="legend_1">
    <g id="patch_59">
     <path d="M 354.654375 78.82825 
L 407.72 78.82825 
Q 409.72 78.82825 409.72 76.82825 
L 409.72 48.472 
Q 409.72 46.472 407.72 46.472 
L 354.654375 46.472 
Q 352.654375 46.472 352.654375 48.472 
L 352.654375 76.82825 
Q 352.654375 78.82825 354.654375 78.82825 
z
" style="fill: #ffffff; opacity: 0.8; stroke: #cccccc; stroke-linejoin: miter"/>
    </g>
    <g id="patch_60">
     <path d="M 356.654375 58.070437 
L 376.654375 58.070437 
L 376.654375 51.070437 
L 356.654375 51.070437 
z
" style="fill: #1f77b4"/>
    </g>
    <g id="text_36">
     <!-- allg -->
     <g transform="translate(384.654375 58.070437) scale(0.1 -0.1)">
      <use xlink:href="#DejaVuSans-61"/>
      <use xlink:href="#DejaVuSans-6c" transform="translate(61.279297 0)"/>
      <use xlink:href="#DejaVuSans-6c" transform="translate(89.0625 0)"/>
      <use xlink:href="#DejaVuSans-67" transform="translate(116.845703 0)"/>
     </g>
    </g>
    <g id="patch_61">
     <path d="M 356.654375 72.748562 
L 376.654375 72.748562 
L 376.654375 65.748562 
L 356.654375 65.748562 
z
" style="fill: #ff7f0e"/>
    </g>
    <g id="text_37">
     <!-- MoE -->
     <g transform="translate(384.654375 72.748562) scale(0.1 -0.1)">
      <use xlink:href="#DejaVuSans-4d"/>
      <use xlink:href="#DejaVuSans-6f" transform="translate(86.279297 0)"/>
      <use xlink:href="#DejaVuSans-45" transform="translate(147.460938 0)"/>
     </g>
    </g>
   </g>
  </g>
 </g>
 <defs>
  <clipPath id="p99ac8502a3">
   <rect x="57.6" y="41.472" width="357.12" height="266.112"/>
  </clipPath>
 </defs>
</svg>
