<?xml version="1.0" encoding="utf-8" standalone="no"?>
<!DOCTYPE svg PUBLIC "-//W3C//DTD SVG 1.1//EN"
  "http://www.w3.org/Graphics/SVG/1.1/DTD/svg11.dtd">
<svg xmlns:xlink="http://www.w3.org/1999/xlink" width="1080pt" height="540pt" viewBox="0 0 1080 540" xmlns="http://www.w3.org/2000/svg" version="1.1">
 <metadata>
  <rdf:RDF xmlns:dc="http://purl.org/dc/elements/1.1/" xmlns:cc="http://creativecommons.org/ns#" xmlns:rdf="http://www.w3.org/1999/02/22-rdf-syntax-ns#">
   <cc:Work>
    <dc:type rdf:resource="http://purl.org/dc/dcmitype/StillImage"/>
    <dc:date>2025-03-25T15:21:21.478206</dc:date>
    <dc:format>image/svg+xml</dc:format>
    <dc:creator>
     <cc:Agent>
      <dc:title>Matplotlib v3.10.1, https://matplotlib.org/</dc:title>
     </cc:Agent>
    </dc:creator>
   </cc:Work>
  </rdf:RDF>
 </metadata>
 <defs>
  <style type="text/css">*{stroke-linejoin: round; stroke-linecap: butt}</style>
 </defs>
 <g id="figure_1">
  <g id="patch_1">
   <path d="M 0 540 
L 1080 540 
L 1080 0 
L 0 0 
z
" style="fill: #ffffff"/>
  </g>
  <g id="axes_1">
   <g id="patch_2">
    <path d="M 135 480.6 
L 515.454545 480.6 
L 515.454545 64.8 
L 135 64.8 
z
" style="fill: #ffffff"/>
   </g>
   <g id="matplotlib.axis_1">
    <g id="xtick_1">
     <g id="line2d_1">
      <defs>
       <path id="md0a7eb1132" d="M 0 0 
L 0 3.5 
" style="stroke: #000000; stroke-width: 0.8"/>
      </defs>
      <g>
       <use xlink:href="#md0a7eb1132" x="152.293388" y="480.6" style="stroke: #000000; stroke-width: 0.8"/>
      </g>
     </g>
     <g id="text_1">
      <!-- 0 -->
      <g transform="translate(149.112138 495.198438) scale(0.1 -0.1)">
       <defs>
        <path id="DejaVuSans-30" d="M 2034 4250 
Q 1547 4250 1301 3770 
Q 1056 3291 1056 2328 
Q 1056 1369 1301 889 
Q 1547 409 2034 409 
Q 2525 409 2770 889 
Q 3016 1369 3016 2328 
Q 3016 3291 2770 3770 
Q 2525 4250 2034 4250 
z
M 2034 4750 
Q 2819 4750 3233 4129 
Q 3647 3509 3647 2328 
Q 3647 1150 3233 529 
Q 2819 -91 2034 -91 
Q 1250 -91 836 529 
Q 422 1150 422 2328 
Q 422 3509 836 4129 
Q 1250 4750 2034 4750 
z
" transform="scale(0.015625)"/>
       </defs>
       <use xlink:href="#DejaVuSans-30"/>
      </g>
     </g>
    </g>
    <g id="xtick_2">
     <g id="line2d_2">
      <g>
       <use xlink:href="#md0a7eb1132" x="222.878647" y="480.6" style="stroke: #000000; stroke-width: 0.8"/>
      </g>
     </g>
     <g id="text_2">
      <!-- 1 -->
      <g transform="translate(219.697397 495.198438) scale(0.1 -0.1)">
       <defs>
        <path id="DejaVuSans-31" d="M 794 531 
L 1825 531 
L 1825 4091 
L 703 3866 
L 703 4441 
L 1819 4666 
L 2450 4666 
L 2450 531 
L 3481 531 
L 3481 0 
L 794 0 
L 794 531 
z
" transform="scale(0.015625)"/>
       </defs>
       <use xlink:href="#DejaVuSans-31"/>
      </g>
     </g>
    </g>
    <g id="xtick_3">
     <g id="line2d_3">
      <g>
       <use xlink:href="#md0a7eb1132" x="293.463906" y="480.6" style="stroke: #000000; stroke-width: 0.8"/>
      </g>
     </g>
     <g id="text_3">
      <!-- 2 -->
      <g transform="translate(290.282656 495.198438) scale(0.1 -0.1)">
       <defs>
        <path id="DejaVuSans-32" d="M 1228 531 
L 3431 531 
L 3431 0 
L 469 0 
L 469 531 
Q 828 903 1448 1529 
Q 2069 2156 2228 2338 
Q 2531 2678 2651 2914 
Q 2772 3150 2772 3378 
Q 2772 3750 2511 3984 
Q 2250 4219 1831 4219 
Q 1534 4219 1204 4116 
Q 875 4013 500 3803 
L 500 4441 
Q 881 4594 1212 4672 
Q 1544 4750 1819 4750 
Q 2544 4750 2975 4387 
Q 3406 4025 3406 3419 
Q 3406 3131 3298 2873 
Q 3191 2616 2906 2266 
Q 2828 2175 2409 1742 
Q 1991 1309 1228 531 
z
" transform="scale(0.015625)"/>
       </defs>
       <use xlink:href="#DejaVuSans-32"/>
      </g>
     </g>
    </g>
    <g id="xtick_4">
     <g id="line2d_4">
      <g>
       <use xlink:href="#md0a7eb1132" x="364.049165" y="480.6" style="stroke: #000000; stroke-width: 0.8"/>
      </g>
     </g>
     <g id="text_4">
      <!-- 3 -->
      <g transform="translate(360.867915 495.198438) scale(0.1 -0.1)">
       <defs>
        <path id="DejaVuSans-33" d="M 2597 2516 
Q 3050 2419 3304 2112 
Q 3559 1806 3559 1356 
Q 3559 666 3084 287 
Q 2609 -91 1734 -91 
Q 1441 -91 1130 -33 
Q 819 25 488 141 
L 488 750 
Q 750 597 1062 519 
Q 1375 441 1716 441 
Q 2309 441 2620 675 
Q 2931 909 2931 1356 
Q 2931 1769 2642 2001 
Q 2353 2234 1838 2234 
L 1294 2234 
L 1294 2753 
L 1863 2753 
Q 2328 2753 2575 2939 
Q 2822 3125 2822 3475 
Q 2822 3834 2567 4026 
Q 2313 4219 1838 4219 
Q 1578 4219 1281 4162 
Q 984 4106 628 3988 
L 628 4550 
Q 988 4650 1302 4700 
Q 1616 4750 1894 4750 
Q 2613 4750 3031 4423 
Q 3450 4097 3450 3541 
Q 3450 3153 3228 2886 
Q 3006 2619 2597 2516 
z
" transform="scale(0.015625)"/>
       </defs>
       <use xlink:href="#DejaVuSans-33"/>
      </g>
     </g>
    </g>
    <g id="xtick_5">
     <g id="line2d_5">
      <g>
       <use xlink:href="#md0a7eb1132" x="434.634424" y="480.6" style="stroke: #000000; stroke-width: 0.8"/>
      </g>
     </g>
     <g id="text_5">
      <!-- 4 -->
      <g transform="translate(431.453174 495.198438) scale(0.1 -0.1)">
       <defs>
        <path id="DejaVuSans-34" d="M 2419 4116 
L 825 1625 
L 2419 1625 
L 2419 4116 
z
M 2253 4666 
L 3047 4666 
L 3047 1625 
L 3713 1625 
L 3713 1100 
L 3047 1100 
L 3047 0 
L 2419 0 
L 2419 1100 
L 313 1100 
L 313 1709 
L 2253 4666 
z
" transform="scale(0.015625)"/>
       </defs>
       <use xlink:href="#DejaVuSans-34"/>
      </g>
     </g>
    </g>
    <g id="xtick_6">
     <g id="line2d_6">
      <g>
       <use xlink:href="#md0a7eb1132" x="505.219683" y="480.6" style="stroke: #000000; stroke-width: 0.8"/>
      </g>
     </g>
     <g id="text_6">
      <!-- 5 -->
      <g transform="translate(502.038433 495.198438) scale(0.1 -0.1)">
       <defs>
        <path id="DejaVuSans-35" d="M 691 4666 
L 3169 4666 
L 3169 4134 
L 1269 4134 
L 1269 2991 
Q 1406 3038 1543 3061 
Q 1681 3084 1819 3084 
Q 2600 3084 3056 2656 
Q 3513 2228 3513 1497 
Q 3513 744 3044 326 
Q 2575 -91 1722 -91 
Q 1428 -91 1123 -41 
Q 819 9 494 109 
L 494 744 
Q 775 591 1075 516 
Q 1375 441 1709 441 
Q 2250 441 2565 725 
Q 2881 1009 2881 1497 
Q 2881 1984 2565 2268 
Q 2250 2553 1709 2553 
Q 1456 2553 1204 2497 
Q 953 2441 691 2322 
L 691 4666 
z
" transform="scale(0.015625)"/>
       </defs>
       <use xlink:href="#DejaVuSans-35"/>
      </g>
     </g>
    </g>
    <g id="text_7">
     <!-- $n$ -->
     <g transform="translate(322.027273 508.876563) scale(0.1 -0.1)">
      <defs>
       <path id="DejaVuSans-Oblique-6e" d="M 3566 2113 
L 3156 0 
L 2578 0 
L 2988 2091 
Q 3016 2238 3031 2350 
Q 3047 2463 3047 2528 
Q 3047 2791 2881 2937 
Q 2716 3084 2419 3084 
Q 1956 3084 1622 2776 
Q 1288 2469 1184 1941 
L 800 0 
L 225 0 
L 903 3500 
L 1478 3500 
L 1363 2950 
Q 1603 3253 1940 3418 
Q 2278 3584 2650 3584 
Q 3113 3584 3367 3334 
Q 3622 3084 3622 2631 
Q 3622 2519 3608 2391 
Q 3594 2263 3566 2113 
z
" transform="scale(0.015625)"/>
      </defs>
      <use xlink:href="#DejaVuSans-Oblique-6e"/>
     </g>
    </g>
   </g>
   <g id="matplotlib.axis_2">
    <g id="ytick_1">
     <g id="line2d_7">
      <defs>
       <path id="m87cc9689ad" d="M 0 0 
L -3.5 0 
" style="stroke: #000000; stroke-width: 0.8"/>
      </defs>
      <g>
       <use xlink:href="#m87cc9689ad" x="135" y="461.7" style="stroke: #000000; stroke-width: 0.8"/>
      </g>
     </g>
     <g id="text_8">
      <!-- 0 -->
      <g transform="translate(121.6375 465.499219) scale(0.1 -0.1)">
       <use xlink:href="#DejaVuSans-30"/>
      </g>
     </g>
    </g>
    <g id="ytick_2">
     <g id="line2d_8">
      <g>
       <use xlink:href="#m87cc9689ad" x="135" y="398.39838" style="stroke: #000000; stroke-width: 0.8"/>
      </g>
     </g>
     <g id="text_9">
      <!-- 5 -->
      <g transform="translate(121.6375 402.197599) scale(0.1 -0.1)">
       <use xlink:href="#DejaVuSans-35"/>
      </g>
     </g>
    </g>
    <g id="ytick_3">
     <g id="line2d_9">
      <g>
       <use xlink:href="#m87cc9689ad" x="135" y="335.09676" style="stroke: #000000; stroke-width: 0.8"/>
      </g>
     </g>
     <g id="text_10">
      <!-- 10 -->
      <g transform="translate(115.275 338.895978) scale(0.1 -0.1)">
       <use xlink:href="#DejaVuSans-31"/>
       <use xlink:href="#DejaVuSans-30" transform="translate(63.623047 0)"/>
      </g>
     </g>
    </g>
    <g id="ytick_4">
     <g id="line2d_10">
      <g>
       <use xlink:href="#m87cc9689ad" x="135" y="271.79514" style="stroke: #000000; stroke-width: 0.8"/>
      </g>
     </g>
     <g id="text_11">
      <!-- 15 -->
      <g transform="translate(115.275 275.594358) scale(0.1 -0.1)">
       <use xlink:href="#DejaVuSans-31"/>
       <use xlink:href="#DejaVuSans-35" transform="translate(63.623047 0)"/>
      </g>
     </g>
    </g>
    <g id="ytick_5">
     <g id="line2d_11">
      <g>
       <use xlink:href="#m87cc9689ad" x="135" y="208.493519" style="stroke: #000000; stroke-width: 0.8"/>
      </g>
     </g>
     <g id="text_12">
      <!-- 20 -->
      <g transform="translate(115.275 212.292738) scale(0.1 -0.1)">
       <use xlink:href="#DejaVuSans-32"/>
       <use xlink:href="#DejaVuSans-30" transform="translate(63.623047 0)"/>
      </g>
     </g>
    </g>
    <g id="ytick_6">
     <g id="line2d_12">
      <g>
       <use xlink:href="#m87cc9689ad" x="135" y="145.191899" style="stroke: #000000; stroke-width: 0.8"/>
      </g>
     </g>
     <g id="text_13">
      <!-- 25 -->
      <g transform="translate(115.275 148.991118) scale(0.1 -0.1)">
       <use xlink:href="#DejaVuSans-32"/>
       <use xlink:href="#DejaVuSans-35" transform="translate(63.623047 0)"/>
      </g>
     </g>
    </g>
    <g id="ytick_7">
     <g id="line2d_13">
      <g>
       <use xlink:href="#m87cc9689ad" x="135" y="81.890279" style="stroke: #000000; stroke-width: 0.8"/>
      </g>
     </g>
     <g id="text_14">
      <!-- 30 -->
      <g transform="translate(115.275 85.689498) scale(0.1 -0.1)">
       <use xlink:href="#DejaVuSans-33"/>
       <use xlink:href="#DejaVuSans-30" transform="translate(63.623047 0)"/>
      </g>
     </g>
    </g>
    <g id="text_15">
     <!-- $f(n)$ -->
     <g transform="translate(109.195312 281.55) rotate(-90) scale(0.1 -0.1)">
      <defs>
       <path id="DejaVuSans-Oblique-66" d="M 3059 4863 
L 2969 4384 
L 2419 4384 
Q 2106 4384 1964 4261 
Q 1822 4138 1753 3809 
L 1691 3500 
L 2638 3500 
L 2553 3053 
L 1606 3053 
L 1013 0 
L 434 0 
L 1031 3053 
L 481 3053 
L 563 3500 
L 1113 3500 
L 1159 3744 
Q 1278 4363 1576 4613 
Q 1875 4863 2516 4863 
L 3059 4863 
z
" transform="scale(0.015625)"/>
       <path id="DejaVuSans-28" d="M 1984 4856 
Q 1566 4138 1362 3434 
Q 1159 2731 1159 2009 
Q 1159 1288 1364 580 
Q 1569 -128 1984 -844 
L 1484 -844 
Q 1016 -109 783 600 
Q 550 1309 550 2009 
Q 550 2706 781 3412 
Q 1013 4119 1484 4856 
L 1984 4856 
z
" transform="scale(0.015625)"/>
       <path id="DejaVuSans-29" d="M 513 4856 
L 1013 4856 
Q 1481 4119 1714 3412 
Q 1947 2706 1947 2009 
Q 1947 1309 1714 600 
Q 1481 -109 1013 -844 
L 513 -844 
Q 928 -128 1133 580 
Q 1338 1288 1338 2009 
Q 1338 2731 1133 3434 
Q 928 4138 513 4856 
z
" transform="scale(0.015625)"/>
      </defs>
      <use xlink:href="#DejaVuSans-Oblique-66" transform="translate(0 0.015625)"/>
      <use xlink:href="#DejaVuSans-28" transform="translate(35.205078 0.015625)"/>
      <use xlink:href="#DejaVuSans-Oblique-6e" transform="translate(74.21875 0.015625)"/>
      <use xlink:href="#DejaVuSans-29" transform="translate(137.597656 0.015625)"/>
     </g>
    </g>
   </g>
   <g id="line2d_14">
    <path d="M 152.293388 449.039676 
L 159.351914 449.039676 
L 166.41044 449.039676 
L 173.468966 449.039676 
L 180.527492 449.039676 
L 187.586018 449.039676 
L 194.644544 449.039676 
L 201.70307 449.039676 
L 208.761596 449.039676 
L 215.820121 449.039676 
L 222.878647 449.039676 
L 229.937173 449.039676 
L 236.995699 449.039676 
L 244.054225 449.039676 
L 251.112751 449.039676 
L 258.171277 449.039676 
L 265.229803 449.039676 
L 272.288329 449.039676 
L 279.346854 449.039676 
L 286.40538 449.039676 
L 293.463906 449.039676 
L 300.522432 449.039676 
L 307.580958 449.039676 
L 314.639484 449.039676 
L 321.69801 449.039676 
L 328.756536 449.039676 
L 335.815062 449.039676 
L 342.873587 449.039676 
L 349.932113 449.039676 
L 356.990639 449.039676 
L 364.049165 449.039676 
L 371.107691 449.039676 
L 378.166217 449.039676 
L 385.224743 449.039676 
L 392.283269 449.039676 
L 399.341795 449.039676 
L 406.40032 449.039676 
L 413.458846 449.039676 
L 420.517372 449.039676 
L 427.575898 449.039676 
L 434.634424 449.039676 
L 441.69295 449.039676 
L 448.751476 449.039676 
L 455.810002 449.039676 
L 462.868528 449.039676 
L 469.927053 449.039676 
L 476.985579 449.039676 
L 484.044105 449.039676 
L 491.102631 449.039676 
L 498.161157 449.039676 
" clip-path="url(#pe722768373)" style="fill: none; stroke: #ff0000; stroke-width: 1.5; stroke-linecap: square"/>
   </g>
   <g id="line2d_15">
    <path d="M 152.293388 461.7 
L 159.351914 460.493342 
L 166.41044 459.39175 
L 173.468966 458.378383 
L 180.527492 457.440152 
L 187.586018 456.56668 
L 194.644544 455.749602 
L 201.70307 454.982074 
L 208.761596 454.25843 
L 215.820121 453.573922 
L 222.878647 452.924532 
L 229.937173 452.306833 
L 236.995699 451.717874 
L 244.054225 451.155101 
L 251.112751 450.616282 
L 258.171277 450.099462 
L 265.229803 449.602915 
L 272.288329 449.125111 
L 279.346854 448.664685 
L 286.40538 448.220417 
L 293.463906 447.791212 
L 300.522432 447.376083 
L 307.580958 446.974134 
L 314.639484 446.584555 
L 321.69801 446.206607 
L 328.756536 445.839615 
L 335.815062 445.482962 
L 342.873587 445.136083 
L 349.932113 444.798454 
L 356.990639 444.469596 
L 364.049165 444.149064 
L 371.107691 443.836448 
L 378.166217 443.531365 
L 385.224743 443.233461 
L 392.283269 442.942406 
L 399.341795 442.657893 
L 406.40032 442.379633 
L 413.458846 442.107357 
L 420.517372 441.840814 
L 427.575898 441.579767 
L 434.634424 441.323995 
L 441.69295 441.073287 
L 448.751476 440.827448 
L 455.810002 440.586291 
L 462.868528 440.349643 
L 469.927053 440.117337 
L 476.985579 439.889217 
L 484.044105 439.665134 
L 491.102631 439.444949 
L 498.161157 439.228528 
" clip-path="url(#pe722768373)" style="fill: none; stroke: #ffa500; stroke-width: 1.5; stroke-linecap: square"/>
   </g>
   <g id="line2d_16">
    <path d="M 152.293388 461.7 
L 159.351914 460.433968 
L 166.41044 459.167935 
L 173.468966 457.901903 
L 180.527492 456.63587 
L 187.586018 455.369838 
L 194.644544 454.103806 
L 201.70307 452.837773 
L 208.761596 451.571741 
L 215.820121 450.305708 
L 222.878647 449.039676 
L 229.937173 447.773644 
L 236.995699 446.507611 
L 244.054225 445.241579 
L 251.112751 443.975546 
L 258.171277 442.709514 
L 265.229803 441.443482 
L 272.288329 440.177449 
L 279.346854 438.911417 
L 286.40538 437.645384 
L 293.463906 436.379352 
L 300.522432 435.11332 
L 307.580958 433.847287 
L 314.639484 432.581255 
L 321.69801 431.315222 
L 328.756536 430.04919 
L 335.815062 428.783158 
L 342.873587 427.517125 
L 349.932113 426.251093 
L 356.990639 424.98506 
L 364.049165 423.719028 
L 371.107691 422.452996 
L 378.166217 421.186963 
L 385.224743 419.920931 
L 392.283269 418.654898 
L 399.341795 417.388866 
L 406.40032 416.122834 
L 413.458846 414.856801 
L 420.517372 413.590769 
L 427.575898 412.324736 
L 434.634424 411.058704 
L 441.69295 409.792671 
L 448.751476 408.526639 
L 455.810002 407.260607 
L 462.868528 405.994574 
L 469.927053 404.728542 
L 476.985579 403.462509 
L 484.044105 402.196477 
L 491.102631 400.930445 
L 498.161157 399.664412 
" clip-path="url(#pe722768373)" style="fill: none; stroke: #0000ff; stroke-width: 1.5; stroke-linecap: square"/>
   </g>
   <g id="line2d_17">
    <path d="M 152.293388 461.7 
L 159.351914 461.573397 
L 166.41044 461.193587 
L 173.468966 460.560571 
L 180.527492 459.674348 
L 187.586018 458.534919 
L 194.644544 457.142283 
L 201.70307 455.496441 
L 208.761596 453.597393 
L 215.820121 451.445138 
L 222.878647 449.039676 
L 229.937173 446.381008 
L 236.995699 443.469133 
L 244.054225 440.304052 
L 251.112751 436.885765 
L 258.171277 433.214271 
L 265.229803 429.28957 
L 272.288329 425.111664 
L 279.346854 420.68055 
L 286.40538 415.99623 
L 293.463906 411.058704 
L 300.522432 405.867971 
L 307.580958 400.424032 
L 314.639484 394.726886 
L 321.69801 388.776534 
L 328.756536 382.572975 
L 335.815062 376.11621 
L 342.873587 369.406238 
L 349.932113 362.44306 
L 356.990639 355.226675 
L 364.049165 347.757084 
L 371.107691 340.034286 
L 378.166217 332.058282 
L 385.224743 323.829071 
L 392.283269 315.346654 
L 399.341795 306.611031 
L 406.40032 297.622201 
L 413.458846 288.380164 
L 420.517372 278.884921 
L 427.575898 269.136472 
L 434.634424 259.134816 
L 441.69295 248.879953 
L 448.751476 238.371884 
L 455.810002 227.610609 
L 462.868528 216.596127 
L 469.927053 205.328438 
L 476.985579 193.807544 
L 484.044105 182.033442 
L 491.102631 170.006134 
L 498.161157 157.72562 
" clip-path="url(#pe722768373)" style="fill: none; stroke: #008000; stroke-width: 1.5; stroke-linecap: square"/>
   </g>
   <g id="line2d_18">
    <path d="M 152.293388 449.039676 
L 159.351914 448.131001 
L 166.41044 447.157107 
L 173.468966 446.113313 
L 180.527492 444.994602 
L 187.586018 443.795598 
L 194.644544 442.510537 
L 201.70307 441.133243 
L 208.761596 439.657096 
L 215.820121 438.075 
L 222.878647 436.379352 
L 229.937173 434.562001 
L 236.995699 432.614213 
L 244.054225 430.526626 
L 251.112751 428.289205 
L 258.171277 425.891196 
L 265.229803 423.321074 
L 272.288329 420.566486 
L 279.346854 417.614191 
L 286.40538 414.45 
L 293.463906 411.058704 
L 300.522432 407.424003 
L 307.580958 403.528426 
L 314.639484 399.353251 
L 321.69801 394.878409 
L 328.756536 390.082392 
L 335.815062 384.942149 
L 342.873587 379.432972 
L 349.932113 373.528382 
L 356.990639 367.2 
L 364.049165 360.417408 
L 371.107691 353.148005 
L 378.166217 345.356853 
L 385.224743 337.006502 
L 392.283269 328.056818 
L 399.341795 318.464784 
L 406.40032 308.184297 
L 413.458846 297.165944 
L 420.517372 285.356765 
L 427.575898 272.7 
L 434.634424 259.134816 
L 441.69295 244.596011 
L 448.751476 229.013706 
L 455.810002 212.313005 
L 462.868528 194.413637 
L 469.927053 175.229569 
L 476.985579 154.668594 
L 484.044105 132.631887 
L 491.102631 109.013529 
L 498.161157 83.7 
" clip-path="url(#pe722768373)" style="fill: none; stroke: #800080; stroke-width: 1.5; stroke-linecap: square"/>
   </g>
   <g id="patch_3">
    <path d="M 135 480.6 
L 135 64.8 
" style="fill: none; stroke: #000000; stroke-width: 0.8; stroke-linejoin: miter; stroke-linecap: square"/>
   </g>
   <g id="patch_4">
    <path d="M 515.454545 480.6 
L 515.454545 64.8 
" style="fill: none; stroke: #000000; stroke-width: 0.8; stroke-linejoin: miter; stroke-linecap: square"/>
   </g>
   <g id="patch_5">
    <path d="M 135 480.6 
L 515.454545 480.6 
" style="fill: none; stroke: #000000; stroke-width: 0.8; stroke-linejoin: miter; stroke-linecap: square"/>
   </g>
   <g id="patch_6">
    <path d="M 135 64.8 
L 515.454545 64.8 
" style="fill: none; stroke: #000000; stroke-width: 0.8; stroke-linejoin: miter; stroke-linecap: square"/>
   </g>
   <g id="text_16">
    <!-- $n=5$ -->
    <g transform="translate(310.227273 58.8) scale(0.12 -0.12)">
     <defs>
      <path id="DejaVuSans-3d" d="M 678 2906 
L 4684 2906 
L 4684 2381 
L 678 2381 
L 678 2906 
z
M 678 1631 
L 4684 1631 
L 4684 1100 
L 678 1100 
L 678 1631 
z
" transform="scale(0.015625)"/>
     </defs>
     <use xlink:href="#DejaVuSans-Oblique-6e" transform="translate(0 0.09375)"/>
     <use xlink:href="#DejaVuSans-3d" transform="translate(82.861328 0.09375)"/>
     <use xlink:href="#DejaVuSans-35" transform="translate(186.132812 0.09375)"/>
    </g>
   </g>
   <g id="legend_1">
    <g id="patch_7">
     <path d="M 142 147.034375 
L 212.4 147.034375 
Q 214.4 147.034375 214.4 145.034375 
L 214.4 71.8 
Q 214.4 69.8 212.4 69.8 
L 142 69.8 
Q 140 69.8 140 71.8 
L 140 145.034375 
Q 140 147.034375 142 147.034375 
z
" style="fill: #ffffff; opacity: 0.8; stroke: #cccccc; stroke-linejoin: miter"/>
    </g>
    <g id="line2d_19">
     <path d="M 144 77.898438 
L 154 77.898438 
L 164 77.898438 
" style="fill: none; stroke: #ff0000; stroke-width: 1.5; stroke-linecap: square"/>
    </g>
    <g id="text_17">
     <!-- $\mathcal{O}(1)$ -->
     <g transform="translate(172 81.398438) scale(0.1 -0.1)">
      <defs>
       <path id="STIXNonUnicode-Italic-e23b" d="M 2304 4237 
L 2342 4090 
Q 1773 3923 1350 3158 
Q 928 2394 928 1472 
Q 928 838 1216 515 
Q 1504 192 1984 192 
Q 2349 192 2739 435 
Q 3130 678 3430 1101 
Q 3968 1862 3968 2944 
Q 3968 3398 3744 3660 
Q 3520 3923 3219 3923 
Q 2918 3923 2691 3728 
Q 2464 3533 2464 3232 
Q 2464 2995 2694 2995 
Q 2714 2995 2784 3011 
Q 2854 3027 2918 3027 
Q 3104 3027 3104 2816 
Q 3104 2637 2944 2496 
Q 2784 2355 2592 2355 
Q 2323 2355 2179 2534 
Q 2035 2714 2035 2995 
Q 2035 3475 2505 3878 
Q 2976 4282 3571 4282 
Q 4096 4282 4381 3882 
Q 4666 3482 4666 2938 
Q 4666 2400 4422 1837 
Q 4179 1274 3808 877 
Q 2931 -64 1754 -64 
Q 1101 -64 672 304 
Q 243 672 243 1363 
Q 243 1933 435 2457 
Q 627 2982 931 3347 
Q 1235 3712 1596 3949 
Q 1958 4186 2304 4237 
z
" transform="scale(0.015625)"/>
      </defs>
      <use xlink:href="#STIXNonUnicode-Italic-e23b" transform="translate(0 0.125)"/>
      <use xlink:href="#DejaVuSans-28" transform="translate(73.699982 0.125)"/>
      <use xlink:href="#DejaVuSans-31" transform="translate(112.713654 0.125)"/>
      <use xlink:href="#DejaVuSans-29" transform="translate(176.3367 0.125)"/>
     </g>
    </g>
    <g id="line2d_20">
     <path d="M 144 92.578125 
L 154 92.578125 
L 164 92.578125 
" style="fill: none; stroke: #ffa500; stroke-width: 1.5; stroke-linecap: square"/>
    </g>
    <g id="text_18">
     <!-- $\mathcal{O}(\log n)$ -->
     <g transform="translate(172 96.078125) scale(0.1 -0.1)">
      <defs>
       <path id="DejaVuSans-6c" d="M 603 4863 
L 1178 4863 
L 1178 0 
L 603 0 
L 603 4863 
z
" transform="scale(0.015625)"/>
       <path id="DejaVuSans-6f" d="M 1959 3097 
Q 1497 3097 1228 2736 
Q 959 2375 959 1747 
Q 959 1119 1226 758 
Q 1494 397 1959 397 
Q 2419 397 2687 759 
Q 2956 1122 2956 1747 
Q 2956 2369 2687 2733 
Q 2419 3097 1959 3097 
z
M 1959 3584 
Q 2709 3584 3137 3096 
Q 3566 2609 3566 1747 
Q 3566 888 3137 398 
Q 2709 -91 1959 -91 
Q 1206 -91 779 398 
Q 353 888 353 1747 
Q 353 2609 779 3096 
Q 1206 3584 1959 3584 
z
" transform="scale(0.015625)"/>
       <path id="DejaVuSans-67" d="M 2906 1791 
Q 2906 2416 2648 2759 
Q 2391 3103 1925 3103 
Q 1463 3103 1205 2759 
Q 947 2416 947 1791 
Q 947 1169 1205 825 
Q 1463 481 1925 481 
Q 2391 481 2648 825 
Q 2906 1169 2906 1791 
z
M 3481 434 
Q 3481 -459 3084 -895 
Q 2688 -1331 1869 -1331 
Q 1566 -1331 1297 -1286 
Q 1028 -1241 775 -1147 
L 775 -588 
Q 1028 -725 1275 -790 
Q 1522 -856 1778 -856 
Q 2344 -856 2625 -561 
Q 2906 -266 2906 331 
L 2906 616 
Q 2728 306 2450 153 
Q 2172 0 1784 0 
Q 1141 0 747 490 
Q 353 981 353 1791 
Q 353 2603 747 3093 
Q 1141 3584 1784 3584 
Q 2172 3584 2450 3431 
Q 2728 3278 2906 2969 
L 2906 3500 
L 3481 3500 
L 3481 434 
z
" transform="scale(0.015625)"/>
      </defs>
      <use xlink:href="#STIXNonUnicode-Italic-e23b" transform="translate(0 0.015625)"/>
      <use xlink:href="#DejaVuSans-28" transform="translate(73.699982 0.015625)"/>
      <use xlink:href="#DejaVuSans-6c" transform="translate(112.713654 0.015625)"/>
      <use xlink:href="#DejaVuSans-6f" transform="translate(140.496857 0.015625)"/>
      <use xlink:href="#DejaVuSans-67" transform="translate(201.678497 0.015625)"/>
      <use xlink:href="#DejaVuSans-Oblique-6e" transform="translate(281.390736 0.015625)"/>
      <use xlink:href="#DejaVuSans-29" transform="translate(344.769642 0.015625)"/>
     </g>
    </g>
    <g id="line2d_21">
     <path d="M 144 107.276563 
L 154 107.276563 
L 164 107.276563 
" style="fill: none; stroke: #0000ff; stroke-width: 1.5; stroke-linecap: square"/>
    </g>
    <g id="text_19">
     <!-- $\mathcal{O}(n)$ -->
     <g transform="translate(172 110.776563) scale(0.1 -0.1)">
      <use xlink:href="#STIXNonUnicode-Italic-e23b" transform="translate(0 0.125)"/>
      <use xlink:href="#DejaVuSans-28" transform="translate(73.699982 0.125)"/>
      <use xlink:href="#DejaVuSans-Oblique-6e" transform="translate(112.713654 0.125)"/>
      <use xlink:href="#DejaVuSans-29" transform="translate(176.09256 0.125)"/>
     </g>
    </g>
    <g id="line2d_22">
     <path d="M 144 122.776563 
L 154 122.776563 
L 164 122.776563 
" style="fill: none; stroke: #008000; stroke-width: 1.5; stroke-linecap: square"/>
    </g>
    <g id="text_20">
     <!-- $\mathcal{O}(n^2)$ -->
     <g transform="translate(172 126.276563) scale(0.1 -0.1)">
      <use xlink:href="#STIXNonUnicode-Italic-e23b" transform="translate(0 0.765625)"/>
      <use xlink:href="#DejaVuSans-28" transform="translate(73.699982 0.765625)"/>
      <use xlink:href="#DejaVuSans-Oblique-6e" transform="translate(112.713654 0.765625)"/>
      <use xlink:href="#DejaVuSans-32" transform="translate(180.742456 39.046875) scale(0.7)"/>
      <use xlink:href="#DejaVuSans-29" transform="translate(228.012963 0.765625)"/>
     </g>
    </g>
    <g id="line2d_23">
     <path d="M 144 137.454687 
L 154 137.454687 
L 164 137.454687 
" style="fill: none; stroke: #800080; stroke-width: 1.5; stroke-linecap: square"/>
    </g>
    <g id="text_21">
     <!-- $\mathcal{O}(2^n)$ -->
     <g transform="translate(172 140.954687) scale(0.1 -0.1)">
      <use xlink:href="#STIXNonUnicode-Italic-e23b" transform="translate(0 0.51875)"/>
      <use xlink:href="#DejaVuSans-28" transform="translate(73.699982 0.51875)"/>
      <use xlink:href="#DejaVuSans-32" transform="translate(112.713654 0.51875)"/>
      <use xlink:href="#DejaVuSans-Oblique-6e" transform="translate(177.293732 38.8) scale(0.7)"/>
      <use xlink:href="#DejaVuSans-29" transform="translate(224.393341 0.51875)"/>
     </g>
    </g>
   </g>
  </g>
  <g id="axes_2">
   <g id="patch_8">
    <path d="M 591.545455 480.6 
L 972 480.6 
L 972 64.8 
L 591.545455 64.8 
z
" style="fill: #ffffff"/>
   </g>
   <g id="matplotlib.axis_3">
    <g id="xtick_7">
     <g id="line2d_24">
      <g>
       <use xlink:href="#md0a7eb1132" x="608.838843" y="480.6" style="stroke: #000000; stroke-width: 0.8"/>
      </g>
     </g>
     <g id="text_22">
      <!-- 0 -->
      <g transform="translate(605.657593 495.198438) scale(0.1 -0.1)">
       <use xlink:href="#DejaVuSans-30"/>
      </g>
     </g>
    </g>
    <g id="xtick_8">
     <g id="line2d_25">
      <g>
       <use xlink:href="#md0a7eb1132" x="679.424102" y="480.6" style="stroke: #000000; stroke-width: 0.8"/>
      </g>
     </g>
     <g id="text_23">
      <!-- 10 -->
      <g transform="translate(673.061602 495.198438) scale(0.1 -0.1)">
       <use xlink:href="#DejaVuSans-31"/>
       <use xlink:href="#DejaVuSans-30" transform="translate(63.623047 0)"/>
      </g>
     </g>
    </g>
    <g id="xtick_9">
     <g id="line2d_26">
      <g>
       <use xlink:href="#md0a7eb1132" x="750.009361" y="480.6" style="stroke: #000000; stroke-width: 0.8"/>
      </g>
     </g>
     <g id="text_24">
      <!-- 20 -->
      <g transform="translate(743.646861 495.198438) scale(0.1 -0.1)">
       <use xlink:href="#DejaVuSans-32"/>
       <use xlink:href="#DejaVuSans-30" transform="translate(63.623047 0)"/>
      </g>
     </g>
    </g>
    <g id="xtick_10">
     <g id="line2d_27">
      <g>
       <use xlink:href="#md0a7eb1132" x="820.59462" y="480.6" style="stroke: #000000; stroke-width: 0.8"/>
      </g>
     </g>
     <g id="text_25">
      <!-- 30 -->
      <g transform="translate(814.23212 495.198438) scale(0.1 -0.1)">
       <use xlink:href="#DejaVuSans-33"/>
       <use xlink:href="#DejaVuSans-30" transform="translate(63.623047 0)"/>
      </g>
     </g>
    </g>
    <g id="xtick_11">
     <g id="line2d_28">
      <g>
       <use xlink:href="#md0a7eb1132" x="891.179879" y="480.6" style="stroke: #000000; stroke-width: 0.8"/>
      </g>
     </g>
     <g id="text_26">
      <!-- 40 -->
      <g transform="translate(884.817379 495.198438) scale(0.1 -0.1)">
       <use xlink:href="#DejaVuSans-34"/>
       <use xlink:href="#DejaVuSans-30" transform="translate(63.623047 0)"/>
      </g>
     </g>
    </g>
    <g id="xtick_12">
     <g id="line2d_29">
      <g>
       <use xlink:href="#md0a7eb1132" x="961.765137" y="480.6" style="stroke: #000000; stroke-width: 0.8"/>
      </g>
     </g>
     <g id="text_27">
      <!-- 50 -->
      <g transform="translate(955.402637 495.198438) scale(0.1 -0.1)">
       <use xlink:href="#DejaVuSans-35"/>
       <use xlink:href="#DejaVuSans-30" transform="translate(63.623047 0)"/>
      </g>
     </g>
    </g>
    <g id="text_28">
     <!-- $n$ -->
     <g transform="translate(778.572727 508.876563) scale(0.1 -0.1)">
      <use xlink:href="#DejaVuSans-Oblique-6e"/>
     </g>
    </g>
   </g>
   <g id="matplotlib.axis_4">
    <g id="ytick_8">
     <g id="line2d_30">
      <g>
       <use xlink:href="#m87cc9689ad" x="591.545455" y="461.7" style="stroke: #000000; stroke-width: 0.8"/>
      </g>
     </g>
     <g id="text_29">
      <!-- 0 -->
      <g transform="translate(578.182955 465.499219) scale(0.1 -0.1)">
       <use xlink:href="#DejaVuSans-30"/>
      </g>
     </g>
    </g>
    <g id="ytick_9">
     <g id="line2d_31">
      <g>
       <use xlink:href="#m87cc9689ad" x="591.545455" y="394.553711" style="stroke: #000000; stroke-width: 0.8"/>
      </g>
     </g>
     <g id="text_30">
      <!-- 1 -->
      <g transform="translate(578.182955 398.35293) scale(0.1 -0.1)">
       <use xlink:href="#DejaVuSans-31"/>
      </g>
     </g>
    </g>
    <g id="ytick_10">
     <g id="line2d_32">
      <g>
       <use xlink:href="#m87cc9689ad" x="591.545455" y="327.407423" style="stroke: #000000; stroke-width: 0.8"/>
      </g>
     </g>
     <g id="text_31">
      <!-- 2 -->
      <g transform="translate(578.182955 331.206642) scale(0.1 -0.1)">
       <use xlink:href="#DejaVuSans-32"/>
      </g>
     </g>
    </g>
    <g id="ytick_11">
     <g id="line2d_33">
      <g>
       <use xlink:href="#m87cc9689ad" x="591.545455" y="260.261134" style="stroke: #000000; stroke-width: 0.8"/>
      </g>
     </g>
     <g id="text_32">
      <!-- 3 -->
      <g transform="translate(578.182955 264.060353) scale(0.1 -0.1)">
       <use xlink:href="#DejaVuSans-33"/>
      </g>
     </g>
    </g>
    <g id="ytick_12">
     <g id="line2d_34">
      <g>
       <use xlink:href="#m87cc9689ad" x="591.545455" y="193.114846" style="stroke: #000000; stroke-width: 0.8"/>
      </g>
     </g>
     <g id="text_33">
      <!-- 4 -->
      <g transform="translate(578.182955 196.914065) scale(0.1 -0.1)">
       <use xlink:href="#DejaVuSans-34"/>
      </g>
     </g>
    </g>
    <g id="ytick_13">
     <g id="line2d_35">
      <g>
       <use xlink:href="#m87cc9689ad" x="591.545455" y="125.968557" style="stroke: #000000; stroke-width: 0.8"/>
      </g>
     </g>
     <g id="text_34">
      <!-- 5 -->
      <g transform="translate(578.182955 129.767776) scale(0.1 -0.1)">
       <use xlink:href="#DejaVuSans-35"/>
      </g>
     </g>
    </g>
    <g id="text_35">
     <!-- $f(n)$ -->
     <g transform="translate(572.103267 281.55) rotate(-90) scale(0.1 -0.1)">
      <use xlink:href="#DejaVuSans-Oblique-66" transform="translate(0 0.015625)"/>
      <use xlink:href="#DejaVuSans-28" transform="translate(35.205078 0.015625)"/>
      <use xlink:href="#DejaVuSans-Oblique-6e" transform="translate(74.21875 0.015625)"/>
      <use xlink:href="#DejaVuSans-29" transform="translate(137.597656 0.015625)"/>
     </g>
    </g>
    <g id="text_36">
     <!-- 1e14 -->
     <g transform="translate(591.545455 61.8) scale(0.1 -0.1)">
      <defs>
       <path id="DejaVuSans-65" d="M 3597 1894 
L 3597 1613 
L 953 1613 
Q 991 1019 1311 708 
Q 1631 397 2203 397 
Q 2534 397 2845 478 
Q 3156 559 3463 722 
L 3463 178 
Q 3153 47 2828 -22 
Q 2503 -91 2169 -91 
Q 1331 -91 842 396 
Q 353 884 353 1716 
Q 353 2575 817 3079 
Q 1281 3584 2069 3584 
Q 2775 3584 3186 3129 
Q 3597 2675 3597 1894 
z
M 3022 2063 
Q 3016 2534 2758 2815 
Q 2500 3097 2075 3097 
Q 1594 3097 1305 2825 
Q 1016 2553 972 2059 
L 3022 2063 
z
" transform="scale(0.015625)"/>
      </defs>
      <use xlink:href="#DejaVuSans-31"/>
      <use xlink:href="#DejaVuSans-65" transform="translate(63.623047 0)"/>
      <use xlink:href="#DejaVuSans-31" transform="translate(125.146484 0)"/>
      <use xlink:href="#DejaVuSans-34" transform="translate(188.769531 0)"/>
     </g>
    </g>
   </g>
   <g id="line2d_36">
    <path d="M 608.838843 461.7 
L 615.897369 461.7 
L 622.955895 461.7 
L 630.014421 461.7 
L 637.072947 461.7 
L 644.131472 461.7 
L 651.189998 461.7 
L 658.248524 461.7 
L 665.30705 461.7 
L 672.365576 461.7 
L 679.424102 461.7 
L 686.482628 461.7 
L 693.541154 461.7 
L 700.59968 461.7 
L 707.658205 461.7 
L 714.716731 461.7 
L 721.775257 461.7 
L 728.833783 461.7 
L 735.892309 461.7 
L 742.950835 461.7 
L 750.009361 461.7 
L 757.067887 461.7 
L 764.126413 461.7 
L 771.184938 461.7 
L 778.243464 461.7 
L 785.30199 461.7 
L 792.360516 461.7 
L 799.419042 461.7 
L 806.477568 461.7 
L 813.536094 461.7 
L 820.59462 461.7 
L 827.653146 461.7 
L 834.711671 461.7 
L 841.770197 461.7 
L 848.828723 461.7 
L 855.887249 461.7 
L 862.945775 461.7 
L 870.004301 461.7 
L 877.062827 461.7 
L 884.121353 461.7 
L 891.179879 461.7 
L 898.238404 461.7 
L 905.29693 461.7 
L 912.355456 461.7 
L 919.413982 461.7 
L 926.472508 461.7 
L 933.531034 461.7 
L 940.58956 461.7 
L 947.648086 461.7 
L 954.706612 461.7 
" clip-path="url(#p6a053517b2)" style="fill: none; stroke: #ff0000; stroke-width: 1.5; stroke-linecap: square"/>
   </g>
   <g id="line2d_37">
    <path d="M 608.838843 461.7 
L 615.897369 461.7 
L 622.955895 461.7 
L 630.014421 461.7 
L 637.072947 461.7 
L 644.131472 461.7 
L 651.189998 461.7 
L 658.248524 461.7 
L 665.30705 461.7 
L 672.365576 461.7 
L 679.424102 461.7 
L 686.482628 461.7 
L 693.541154 461.7 
L 700.59968 461.7 
L 707.658205 461.7 
L 714.716731 461.7 
L 721.775257 461.7 
L 728.833783 461.7 
L 735.892309 461.7 
L 742.950835 461.7 
L 750.009361 461.7 
L 757.067887 461.7 
L 764.126413 461.7 
L 771.184938 461.7 
L 778.243464 461.7 
L 785.30199 461.7 
L 792.360516 461.7 
L 799.419042 461.7 
L 806.477568 461.7 
L 813.536094 461.7 
L 820.59462 461.7 
L 827.653146 461.7 
L 834.711671 461.7 
L 841.770197 461.7 
L 848.828723 461.7 
L 855.887249 461.7 
L 862.945775 461.7 
L 870.004301 461.7 
L 877.062827 461.7 
L 884.121353 461.7 
L 891.179879 461.7 
L 898.238404 461.7 
L 905.29693 461.7 
L 912.355456 461.7 
L 919.413982 461.7 
L 926.472508 461.7 
L 933.531034 461.7 
L 940.58956 461.7 
L 947.648086 461.7 
L 954.706612 461.7 
" clip-path="url(#p6a053517b2)" style="fill: none; stroke: #ffa500; stroke-width: 1.5; stroke-linecap: square"/>
   </g>
   <g id="line2d_38">
    <path d="M 608.838843 461.7 
L 615.897369 461.7 
L 622.955895 461.7 
L 630.014421 461.7 
L 637.072947 461.7 
L 644.131472 461.7 
L 651.189998 461.7 
L 658.248524 461.7 
L 665.30705 461.7 
L 672.365576 461.7 
L 679.424102 461.7 
L 686.482628 461.7 
L 693.541154 461.7 
L 700.59968 461.7 
L 707.658205 461.7 
L 714.716731 461.7 
L 721.775257 461.7 
L 728.833783 461.7 
L 735.892309 461.7 
L 742.950835 461.7 
L 750.009361 461.7 
L 757.067887 461.7 
L 764.126413 461.7 
L 771.184938 461.7 
L 778.243464 461.7 
L 785.30199 461.7 
L 792.360516 461.7 
L 799.419042 461.7 
L 806.477568 461.7 
L 813.536094 461.7 
L 820.59462 461.7 
L 827.653146 461.7 
L 834.711671 461.7 
L 841.770197 461.7 
L 848.828723 461.7 
L 855.887249 461.7 
L 862.945775 461.7 
L 870.004301 461.7 
L 877.062827 461.7 
L 884.121353 461.7 
L 891.179879 461.7 
L 898.238404 461.7 
L 905.29693 461.7 
L 912.355456 461.7 
L 919.413982 461.7 
L 926.472508 461.7 
L 933.531034 461.7 
L 940.58956 461.7 
L 947.648086 461.7 
L 954.706612 461.7 
" clip-path="url(#p6a053517b2)" style="fill: none; stroke: #0000ff; stroke-width: 1.5; stroke-linecap: square"/>
   </g>
   <g id="line2d_39">
    <path d="M 608.838843 461.7 
L 615.897369 461.7 
L 622.955895 461.7 
L 630.014421 461.7 
L 637.072947 461.7 
L 644.131472 461.7 
L 651.189998 461.7 
L 658.248524 461.7 
L 665.30705 461.7 
L 672.365576 461.7 
L 679.424102 461.7 
L 686.482628 461.7 
L 693.541154 461.7 
L 700.59968 461.7 
L 707.658205 461.7 
L 714.716731 461.7 
L 721.775257 461.7 
L 728.833783 461.7 
L 735.892309 461.7 
L 742.950835 461.7 
L 750.009361 461.7 
L 757.067887 461.7 
L 764.126413 461.7 
L 771.184938 461.7 
L 778.243464 461.7 
L 785.30199 461.7 
L 792.360516 461.7 
L 799.419042 461.7 
L 806.477568 461.7 
L 813.536094 461.7 
L 820.59462 461.7 
L 827.653146 461.7 
L 834.711671 461.7 
L 841.770197 461.7 
L 848.828723 461.7 
L 855.887249 461.7 
L 862.945775 461.7 
L 870.004301 461.7 
L 877.062827 461.7 
L 884.121353 461.7 
L 891.179879 461.7 
L 898.238404 461.7 
L 905.29693 461.7 
L 912.355456 461.7 
L 919.413982 461.7 
L 926.472508 461.7 
L 933.531034 461.7 
L 940.58956 461.7 
L 947.648086 461.7 
L 954.706612 461.7 
" clip-path="url(#p6a053517b2)" style="fill: none; stroke: #008000; stroke-width: 1.5; stroke-linecap: square"/>
   </g>
   <g id="line2d_40">
    <path d="M 608.838843 461.7 
L 615.897369 461.7 
L 622.955895 461.7 
L 630.014421 461.7 
L 637.072947 461.7 
L 644.131472 461.7 
L 651.189998 461.7 
L 658.248524 461.7 
L 665.30705 461.7 
L 672.365576 461.7 
L 679.424102 461.7 
L 686.482628 461.7 
L 693.541154 461.7 
L 700.59968 461.7 
L 707.658205 461.7 
L 714.716731 461.7 
L 721.775257 461.7 
L 728.833783 461.7 
L 735.892309 461.7 
L 742.950835 461.7 
L 750.009361 461.699999 
L 757.067887 461.699999 
L 764.126413 461.699997 
L 771.184938 461.699994 
L 778.243464 461.699989 
L 785.30199 461.699977 
L 792.360516 461.699955 
L 799.419042 461.69991 
L 806.477568 461.69982 
L 813.536094 461.69964 
L 820.59462 461.699279 
L 827.653146 461.698558 
L 834.711671 461.697116 
L 841.770197 461.694232 
L 848.828723 461.688464 
L 855.887249 461.676929 
L 862.945775 461.653857 
L 870.004301 461.607715 
L 877.062827 461.51543 
L 884.121353 461.330859 
L 891.179879 460.961719 
L 898.238404 460.223437 
L 905.29693 458.746875 
L 912.355456 455.79375 
L 919.413982 449.8875 
L 926.472508 438.075 
L 933.531034 414.45 
L 940.58956 367.2 
L 947.648086 272.7 
L 954.706612 83.7 
" clip-path="url(#p6a053517b2)" style="fill: none; stroke: #800080; stroke-width: 1.5; stroke-linecap: square"/>
   </g>
   <g id="patch_9">
    <path d="M 591.545455 480.6 
L 591.545455 64.8 
" style="fill: none; stroke: #000000; stroke-width: 0.8; stroke-linejoin: miter; stroke-linecap: square"/>
   </g>
   <g id="patch_10">
    <path d="M 972 480.6 
L 972 64.8 
" style="fill: none; stroke: #000000; stroke-width: 0.8; stroke-linejoin: miter; stroke-linecap: square"/>
   </g>
   <g id="patch_11">
    <path d="M 591.545455 480.6 
L 972 480.6 
" style="fill: none; stroke: #000000; stroke-width: 0.8; stroke-linejoin: miter; stroke-linecap: square"/>
   </g>
   <g id="patch_12">
    <path d="M 591.545455 64.8 
L 972 64.8 
" style="fill: none; stroke: #000000; stroke-width: 0.8; stroke-linejoin: miter; stroke-linecap: square"/>
   </g>
   <g id="text_37">
    <!-- $n=50$ -->
    <g transform="translate(762.932727 58.8) scale(0.12 -0.12)">
     <use xlink:href="#DejaVuSans-Oblique-6e" transform="translate(0 0.78125)"/>
     <use xlink:href="#DejaVuSans-3d" transform="translate(82.861328 0.78125)"/>
     <use xlink:href="#DejaVuSans-35" transform="translate(186.132812 0.78125)"/>
     <use xlink:href="#DejaVuSans-30" transform="translate(249.755859 0.78125)"/>
    </g>
   </g>
   <g id="legend_2">
    <g id="patch_13">
     <path d="M 598.545455 147.034375 
L 668.945455 147.034375 
Q 670.945455 147.034375 670.945455 145.034375 
L 670.945455 71.8 
Q 670.945455 69.8 668.945455 69.8 
L 598.545455 69.8 
Q 596.545455 69.8 596.545455 71.8 
L 596.545455 145.034375 
Q 596.545455 147.034375 598.545455 147.034375 
z
" style="fill: #ffffff; opacity: 0.8; stroke: #cccccc; stroke-linejoin: miter"/>
    </g>
    <g id="line2d_41">
     <path d="M 600.545455 77.898438 
L 610.545455 77.898438 
L 620.545455 77.898438 
" style="fill: none; stroke: #ff0000; stroke-width: 1.5; stroke-linecap: square"/>
    </g>
    <g id="text_38">
     <!-- $\mathcal{O}(1)$ -->
     <g transform="translate(628.545455 81.398438) scale(0.1 -0.1)">
      <use xlink:href="#STIXNonUnicode-Italic-e23b" transform="translate(0 0.125)"/>
      <use xlink:href="#DejaVuSans-28" transform="translate(73.699982 0.125)"/>
      <use xlink:href="#DejaVuSans-31" transform="translate(112.713654 0.125)"/>
      <use xlink:href="#DejaVuSans-29" transform="translate(176.3367 0.125)"/>
     </g>
    </g>
    <g id="line2d_42">
     <path d="M 600.545455 92.578125 
L 610.545455 92.578125 
L 620.545455 92.578125 
" style="fill: none; stroke: #ffa500; stroke-width: 1.5; stroke-linecap: square"/>
    </g>
    <g id="text_39">
     <!-- $\mathcal{O}(\log n)$ -->
     <g transform="translate(628.545455 96.078125) scale(0.1 -0.1)">
      <use xlink:href="#STIXNonUnicode-Italic-e23b" transform="translate(0 0.015625)"/>
      <use xlink:href="#DejaVuSans-28" transform="translate(73.699982 0.015625)"/>
      <use xlink:href="#DejaVuSans-6c" transform="translate(112.713654 0.015625)"/>
      <use xlink:href="#DejaVuSans-6f" transform="translate(140.496857 0.015625)"/>
      <use xlink:href="#DejaVuSans-67" transform="translate(201.678497 0.015625)"/>
      <use xlink:href="#DejaVuSans-Oblique-6e" transform="translate(281.390736 0.015625)"/>
      <use xlink:href="#DejaVuSans-29" transform="translate(344.769642 0.015625)"/>
     </g>
    </g>
    <g id="line2d_43">
     <path d="M 600.545455 107.276563 
L 610.545455 107.276563 
L 620.545455 107.276563 
" style="fill: none; stroke: #0000ff; stroke-width: 1.5; stroke-linecap: square"/>
    </g>
    <g id="text_40">
     <!-- $\mathcal{O}(n)$ -->
     <g transform="translate(628.545455 110.776563) scale(0.1 -0.1)">
      <use xlink:href="#STIXNonUnicode-Italic-e23b" transform="translate(0 0.125)"/>
      <use xlink:href="#DejaVuSans-28" transform="translate(73.699982 0.125)"/>
      <use xlink:href="#DejaVuSans-Oblique-6e" transform="translate(112.713654 0.125)"/>
      <use xlink:href="#DejaVuSans-29" transform="translate(176.09256 0.125)"/>
     </g>
    </g>
    <g id="line2d_44">
     <path d="M 600.545455 122.776563 
L 610.545455 122.776563 
L 620.545455 122.776563 
" style="fill: none; stroke: #008000; stroke-width: 1.5; stroke-linecap: square"/>
    </g>
    <g id="text_41">
     <!-- $\mathcal{O}(n^2)$ -->
     <g transform="translate(628.545455 126.276563) scale(0.1 -0.1)">
      <use xlink:href="#STIXNonUnicode-Italic-e23b" transform="translate(0 0.765625)"/>
      <use xlink:href="#DejaVuSans-28" transform="translate(73.699982 0.765625)"/>
      <use xlink:href="#DejaVuSans-Oblique-6e" transform="translate(112.713654 0.765625)"/>
      <use xlink:href="#DejaVuSans-32" transform="translate(180.742456 39.046875) scale(0.7)"/>
      <use xlink:href="#DejaVuSans-29" transform="translate(228.012963 0.765625)"/>
     </g>
    </g>
    <g id="line2d_45">
     <path d="M 600.545455 137.454687 
L 610.545455 137.454687 
L 620.545455 137.454687 
" style="fill: none; stroke: #800080; stroke-width: 1.5; stroke-linecap: square"/>
    </g>
    <g id="text_42">
     <!-- $\mathcal{O}(2^n)$ -->
     <g transform="translate(628.545455 140.954687) scale(0.1 -0.1)">
      <use xlink:href="#STIXNonUnicode-Italic-e23b" transform="translate(0 0.51875)"/>
      <use xlink:href="#DejaVuSans-28" transform="translate(73.699982 0.51875)"/>
      <use xlink:href="#DejaVuSans-32" transform="translate(112.713654 0.51875)"/>
      <use xlink:href="#DejaVuSans-Oblique-6e" transform="translate(177.293732 38.8) scale(0.7)"/>
      <use xlink:href="#DejaVuSans-29" transform="translate(224.393341 0.51875)"/>
     </g>
    </g>
   </g>
  </g>
  <g id="text_43">
   <!-- Komplexität von Algorithmen -->
   <g transform="translate(452.470312 19.918125) scale(0.12 -0.12)">
    <defs>
     <path id="DejaVuSans-4b" d="M 628 4666 
L 1259 4666 
L 1259 2694 
L 3353 4666 
L 4166 4666 
L 1850 2491 
L 4331 0 
L 3500 0 
L 1259 2247 
L 1259 0 
L 628 0 
L 628 4666 
z
" transform="scale(0.015625)"/>
     <path id="DejaVuSans-6d" d="M 3328 2828 
Q 3544 3216 3844 3400 
Q 4144 3584 4550 3584 
Q 5097 3584 5394 3201 
Q 5691 2819 5691 2113 
L 5691 0 
L 5113 0 
L 5113 2094 
Q 5113 2597 4934 2840 
Q 4756 3084 4391 3084 
Q 3944 3084 3684 2787 
Q 3425 2491 3425 1978 
L 3425 0 
L 2847 0 
L 2847 2094 
Q 2847 2600 2669 2842 
Q 2491 3084 2119 3084 
Q 1678 3084 1418 2786 
Q 1159 2488 1159 1978 
L 1159 0 
L 581 0 
L 581 3500 
L 1159 3500 
L 1159 2956 
Q 1356 3278 1631 3431 
Q 1906 3584 2284 3584 
Q 2666 3584 2933 3390 
Q 3200 3197 3328 2828 
z
" transform="scale(0.015625)"/>
     <path id="DejaVuSans-70" d="M 1159 525 
L 1159 -1331 
L 581 -1331 
L 581 3500 
L 1159 3500 
L 1159 2969 
Q 1341 3281 1617 3432 
Q 1894 3584 2278 3584 
Q 2916 3584 3314 3078 
Q 3713 2572 3713 1747 
Q 3713 922 3314 415 
Q 2916 -91 2278 -91 
Q 1894 -91 1617 61 
Q 1341 213 1159 525 
z
M 3116 1747 
Q 3116 2381 2855 2742 
Q 2594 3103 2138 3103 
Q 1681 3103 1420 2742 
Q 1159 2381 1159 1747 
Q 1159 1113 1420 752 
Q 1681 391 2138 391 
Q 2594 391 2855 752 
Q 3116 1113 3116 1747 
z
" transform="scale(0.015625)"/>
     <path id="DejaVuSans-78" d="M 3513 3500 
L 2247 1797 
L 3578 0 
L 2900 0 
L 1881 1375 
L 863 0 
L 184 0 
L 1544 1831 
L 300 3500 
L 978 3500 
L 1906 2253 
L 2834 3500 
L 3513 3500 
z
" transform="scale(0.015625)"/>
     <path id="DejaVuSans-69" d="M 603 3500 
L 1178 3500 
L 1178 0 
L 603 0 
L 603 3500 
z
M 603 4863 
L 1178 4863 
L 1178 4134 
L 603 4134 
L 603 4863 
z
" transform="scale(0.015625)"/>
     <path id="DejaVuSans-74" d="M 1172 4494 
L 1172 3500 
L 2356 3500 
L 2356 3053 
L 1172 3053 
L 1172 1153 
Q 1172 725 1289 603 
Q 1406 481 1766 481 
L 2356 481 
L 2356 0 
L 1766 0 
Q 1100 0 847 248 
Q 594 497 594 1153 
L 594 3053 
L 172 3053 
L 172 3500 
L 594 3500 
L 594 4494 
L 1172 4494 
z
" transform="scale(0.015625)"/>
     <path id="DejaVuSans-e4" d="M 2194 1759 
Q 1497 1759 1228 1600 
Q 959 1441 959 1056 
Q 959 750 1161 570 
Q 1363 391 1709 391 
Q 2188 391 2477 730 
Q 2766 1069 2766 1631 
L 2766 1759 
L 2194 1759 
z
M 3341 1997 
L 3341 0 
L 2766 0 
L 2766 531 
Q 2569 213 2275 61 
Q 1981 -91 1556 -91 
Q 1019 -91 701 211 
Q 384 513 384 1019 
Q 384 1609 779 1909 
Q 1175 2209 1959 2209 
L 2766 2209 
L 2766 2266 
Q 2766 2663 2505 2880 
Q 2244 3097 1772 3097 
Q 1472 3097 1187 3025 
Q 903 2953 641 2809 
L 641 3341 
Q 956 3463 1253 3523 
Q 1550 3584 1831 3584 
Q 2591 3584 2966 3190 
Q 3341 2797 3341 1997 
z
M 2150 4850 
L 2784 4850 
L 2784 4219 
L 2150 4219 
L 2150 4850 
z
M 928 4850 
L 1562 4850 
L 1562 4219 
L 928 4219 
L 928 4850 
z
" transform="scale(0.015625)"/>
     <path id="DejaVuSans-20" transform="scale(0.015625)"/>
     <path id="DejaVuSans-76" d="M 191 3500 
L 800 3500 
L 1894 563 
L 2988 3500 
L 3597 3500 
L 2284 0 
L 1503 0 
L 191 3500 
z
" transform="scale(0.015625)"/>
     <path id="DejaVuSans-6e" d="M 3513 2113 
L 3513 0 
L 2938 0 
L 2938 2094 
Q 2938 2591 2744 2837 
Q 2550 3084 2163 3084 
Q 1697 3084 1428 2787 
Q 1159 2491 1159 1978 
L 1159 0 
L 581 0 
L 581 3500 
L 1159 3500 
L 1159 2956 
Q 1366 3272 1645 3428 
Q 1925 3584 2291 3584 
Q 2894 3584 3203 3211 
Q 3513 2838 3513 2113 
z
" transform="scale(0.015625)"/>
     <path id="DejaVuSans-41" d="M 2188 4044 
L 1331 1722 
L 3047 1722 
L 2188 4044 
z
M 1831 4666 
L 2547 4666 
L 4325 0 
L 3669 0 
L 3244 1197 
L 1141 1197 
L 716 0 
L 50 0 
L 1831 4666 
z
" transform="scale(0.015625)"/>
     <path id="DejaVuSans-72" d="M 2631 2963 
Q 2534 3019 2420 3045 
Q 2306 3072 2169 3072 
Q 1681 3072 1420 2755 
Q 1159 2438 1159 1844 
L 1159 0 
L 581 0 
L 581 3500 
L 1159 3500 
L 1159 2956 
Q 1341 3275 1631 3429 
Q 1922 3584 2338 3584 
Q 2397 3584 2469 3576 
Q 2541 3569 2628 3553 
L 2631 2963 
z
" transform="scale(0.015625)"/>
     <path id="DejaVuSans-68" d="M 3513 2113 
L 3513 0 
L 2938 0 
L 2938 2094 
Q 2938 2591 2744 2837 
Q 2550 3084 2163 3084 
Q 1697 3084 1428 2787 
Q 1159 2491 1159 1978 
L 1159 0 
L 581 0 
L 581 4863 
L 1159 4863 
L 1159 2956 
Q 1366 3272 1645 3428 
Q 1925 3584 2291 3584 
Q 2894 3584 3203 3211 
Q 3513 2838 3513 2113 
z
" transform="scale(0.015625)"/>
    </defs>
    <use xlink:href="#DejaVuSans-4b"/>
    <use xlink:href="#DejaVuSans-6f" transform="translate(60.576172 0)"/>
    <use xlink:href="#DejaVuSans-6d" transform="translate(121.757812 0)"/>
    <use xlink:href="#DejaVuSans-70" transform="translate(219.169922 0)"/>
    <use xlink:href="#DejaVuSans-6c" transform="translate(282.646484 0)"/>
    <use xlink:href="#DejaVuSans-65" transform="translate(310.429688 0)"/>
    <use xlink:href="#DejaVuSans-78" transform="translate(370.203125 0)"/>
    <use xlink:href="#DejaVuSans-69" transform="translate(429.382812 0)"/>
    <use xlink:href="#DejaVuSans-74" transform="translate(457.166016 0)"/>
    <use xlink:href="#DejaVuSans-e4" transform="translate(496.375 0)"/>
    <use xlink:href="#DejaVuSans-74" transform="translate(557.654297 0)"/>
    <use xlink:href="#DejaVuSans-20" transform="translate(596.863281 0)"/>
    <use xlink:href="#DejaVuSans-76" transform="translate(628.650391 0)"/>
    <use xlink:href="#DejaVuSans-6f" transform="translate(687.830078 0)"/>
    <use xlink:href="#DejaVuSans-6e" transform="translate(749.011719 0)"/>
    <use xlink:href="#DejaVuSans-20" transform="translate(812.390625 0)"/>
    <use xlink:href="#DejaVuSans-41" transform="translate(844.177734 0)"/>
    <use xlink:href="#DejaVuSans-6c" transform="translate(912.585938 0)"/>
    <use xlink:href="#DejaVuSans-67" transform="translate(940.369141 0)"/>
    <use xlink:href="#DejaVuSans-6f" transform="translate(1003.845703 0)"/>
    <use xlink:href="#DejaVuSans-72" transform="translate(1065.027344 0)"/>
    <use xlink:href="#DejaVuSans-69" transform="translate(1106.140625 0)"/>
    <use xlink:href="#DejaVuSans-74" transform="translate(1133.923828 0)"/>
    <use xlink:href="#DejaVuSans-68" transform="translate(1173.132812 0)"/>
    <use xlink:href="#DejaVuSans-6d" transform="translate(1236.511719 0)"/>
    <use xlink:href="#DejaVuSans-65" transform="translate(1333.923828 0)"/>
    <use xlink:href="#DejaVuSans-6e" transform="translate(1395.447266 0)"/>
   </g>
  </g>
 </g>
 <defs>
  <clipPath id="pe722768373">
   <rect x="135" y="64.8" width="380.454545" height="415.8"/>
  </clipPath>
  <clipPath id="p6a053517b2">
   <rect x="591.545455" y="64.8" width="380.454545" height="415.8"/>
  </clipPath>
 </defs>
</svg>
